<?xml version="1.0" encoding="UTF-8" standalone="no"?>
<!-- Created with Inkscape (http://www.inkscape.org/) -->

<svg
   xmlns:dc="http://purl.org/dc/elements/1.1/"
   xmlns:cc="http://creativecommons.org/ns#"
   xmlns:rdf="http://www.w3.org/1999/02/22-rdf-syntax-ns#"
   xmlns:svg="http://www.w3.org/2000/svg"
   xmlns="http://www.w3.org/2000/svg"
   xmlns:sodipodi="http://sodipodi.sourceforge.net/DTD/sodipodi-0.dtd"
   xmlns:inkscape="http://www.inkscape.org/namespaces/inkscape"
   width="512"
   height="512"
   viewBox="0 0 135.46666 135.46667"
   version="1.1"
   id="svg6452"
   inkscape:version="0.92.2 (5c3e80d, 2017-08-06)"
   sodipodi:docname="ambulancia.svg">
  <defs
     id="defs6446" />
  <sodipodi:namedview
     id="base"
     pagecolor="#ffffff"
     bordercolor="#666666"
     borderopacity="1.0"
     inkscape:pageopacity="0.0"
     inkscape:pageshadow="2"
     inkscape:zoom="0.98994949"
     inkscape:cx="238.0289"
     inkscape:cy="231.97452"
     inkscape:document-units="mm"
     inkscape:current-layer="layer1"
     showgrid="false"
     fit-margin-top="0"
     fit-margin-left="0"
     fit-margin-right="0"
     fit-margin-bottom="0"
     inkscape:window-width="1920"
     inkscape:window-height="1025"
     inkscape:window-x="0"
     inkscape:window-y="27"
     inkscape:window-maximized="1"
     units="px" />
  <metadata
     id="metadata6449">
    <rdf:RDF>
      <cc:Work
         rdf:about="">
        <dc:format>image/svg+xml</dc:format>
        <dc:type
           rdf:resource="http://purl.org/dc/dcmitype/StillImage" />
        <dc:title></dc:title>
      </cc:Work>
    </rdf:RDF>
  </metadata>
  <g
     inkscape:label="Camada 1"
     inkscape:groupmode="layer"
     id="layer1"
     transform="translate(32.615974,22.771466)">
    <path
       id="rect4693"
       style="fill:#000000;fill-opacity:1;stroke:none;stroke-width:0.82170016"
       d="m 46.247064,10.995588 h 7.070184 v 9.898243 H 46.247064 Z M -7.9235038,63.609429 a 7.6593639,7.6593639 0 0 0 -7.6593442,7.659357 7.6593639,7.6593639 0 0 0 7.6593442,7.659361 7.6593639,7.6593639 0 0 0 7.65935752,-7.659361 7.6593639,7.6593639 0 0 0 -7.65935752,-7.659357 z m 0,4.271555 a 3.3877957,3.3877957 0 0 1 3.3878048,3.387802 3.3877957,3.3877957 0 0 1 -3.3878048,3.387812 3.3877957,3.3877957 0 0 1 -3.3877752,-3.387812 3.3877957,3.3877957 0 0 1 3.3877752,-3.387802 z M 79.712599,63.079157 a 7.6593632,7.6593632 0 0 0 -7.659364,7.659381 7.6593632,7.6593632 0 0 0 7.659364,7.659361 7.6593632,7.6593632 0 0 0 7.659358,-7.659361 7.6593632,7.6593632 0 0 0 -7.659358,-7.659381 z m 0,4.271569 a 3.3877957,3.3877957 0 0 1 3.387789,3.387812 3.3877957,3.3877957 0 0 1 -3.387789,3.387783 3.3877957,3.3877957 0 0 1 -3.387789,-3.387783 3.3877957,3.3877957 0 0 1 3.387789,-3.387812 z M 11.367503,33.384398 v 5.656148 H 5.7113569 v 5.891824 h 5.6561461 v 5.302616 h 6.53991 V 44.93237 h 5.774001 V 39.040546 H 17.907413 V 33.384398 Z M 89.860497,62.405385 H 102.35894 V 72.73743 H 89.860497 Z M 2.5381033,63.738589 H 69.615489 v 9.125087 H 2.5381033 Z M -32.12422,64.571764 h 13.998248 v 8.332295 H -32.12422 Z M 51.431868,22.42561 -24.69042,22.779115 c -6.881052,3.318507 -3.972689,29.822171 -4.713461,39.003843 h 14.418459 a 10.622467,10.622467 0 0 1 0.64339,-0.565606 10.622467,10.622467 0 0 1 0.863726,-0.617455 10.622467,10.622467 0 0 1 0.920314,-0.529099 10.622467,10.622467 0 0 1 0.969788,-0.433641 10.622467,10.622467 0 0 1 1.007497,-0.334649 10.622467,10.622467 0 0 1 1.0357953,-0.232151 10.622467,10.622467 0 0 1 1.0546213,-0.128396 10.622467,10.622467 0 0 1 0.7506232,-0.026 10.622467,10.622467 0 0 1 1.0605254,0.05308 10.622467,10.622467 0 0 1 1.0499362,0.157795 10.622467,10.622467 0 0 1 1.0287007,0.262775 10.622467,10.622467 0 0 1 0.9980712,0.364108 10.622467,10.622467 0 0 1 0.9556602,0.461924 10.622467,10.622467 0 0 1 0.904984,0.555016 10.622467,10.622467 0 0 1 0.84605273,0.643391 10.622467,10.622467 0 0 1 0.3959373,0.368828 H 51.431868 V 29.743202 H 65.529829 L 81.922026,45.639328 H 57.912871 v 15.790088 h 14.96994 a 10.66533,10.66533 0 0 1 0.432444,-0.379453 10.66533,10.66533 0 0 1 0.86728,-0.619814 10.66533,10.66533 0 0 1 0.925028,-0.530273 10.66533,10.66533 0 0 1 0.973318,-0.435991 10.66533,10.66533 0 0 1 1.011044,-0.335831 10.66533,10.66533 0 0 1 1.040495,-0.233297 10.66533,10.66533 0 0 1 1.058173,-0.128403 10.66533,10.66533 0 0 1 0.75415,-0.0271 10.66533,10.66533 0 0 1 1.065245,0.05308 10.66533,10.66533 0 0 1 1.053453,0.159124 10.66533,10.66533 0 0 1 1.033423,0.26395 10.66533,10.66533 0 0 1 1.001609,0.365284 10.66533,10.66533 0 0 1 0.960367,0.464293 10.66533,10.66533 0 0 1 0.908514,0.557352 10.66533,10.66533 0 0 1 0.848425,0.644565 10.66533,10.66533 0 0 1 0.195616,0.18264 H 99.509108 C 99.86472,56.75434 100.13214,52.12321 96.798878,49.292411 l -10.2718,-4.24211 -23.118322,-22.506743 z m -36.529287,6.716671 c 7.223807,0 13.079844,5.85605 13.079844,13.079836 0,7.223809 -5.856037,13.079844 -13.079844,13.079844 -7.2237639,0 -13.0798149,-5.856035 -13.0798149,-13.079844 0,-7.223786 5.856051,-13.079836 13.0798149,-13.079836 z M -26.281217,49.35123 h 4.418863 v 10.487425 h -4.418863 z"
       inkscape:connector-curvature="0" />
  </g>
</svg>
