<?xml version="1.0" encoding="UTF-8" standalone="no"?>
<!-- Created with Inkscape (http://www.inkscape.org/) -->

<svg
   xmlns:dc="http://purl.org/dc/elements/1.1/"
   xmlns:cc="http://creativecommons.org/ns#"
   xmlns:rdf="http://www.w3.org/1999/02/22-rdf-syntax-ns#"
   xmlns:svg="http://www.w3.org/2000/svg"
   xmlns="http://www.w3.org/2000/svg"
   xmlns:sodipodi="http://sodipodi.sourceforge.net/DTD/sodipodi-0.dtd"
   xmlns:inkscape="http://www.inkscape.org/namespaces/inkscape"
   width="512"
   height="512"
   viewBox="0 0 135.46666 135.46666"
   version="1.1"
   id="svg17004"
   inkscape:version="0.92.2 (5c3e80d, 2017-08-06)"
   sodipodi:docname="betorneira.svg">
  <defs
     id="defs16998" />
  <sodipodi:namedview
     id="base"
     pagecolor="#ffffff"
     bordercolor="#666666"
     borderopacity="1.0"
     inkscape:pageopacity="0.0"
     inkscape:pageshadow="2"
     inkscape:zoom="0.98994949"
     inkscape:cx="127.88228"
     inkscape:cy="-52.493042"
     inkscape:document-units="mm"
     inkscape:current-layer="layer1"
     showgrid="false"
     fit-margin-top="0"
     fit-margin-left="0"
     fit-margin-right="0"
     fit-margin-bottom="0"
     inkscape:window-width="1920"
     inkscape:window-height="1025"
     inkscape:window-x="0"
     inkscape:window-y="27"
     inkscape:window-maximized="1"
     units="px" />
  <metadata
     id="metadata17001">
    <rdf:RDF>
      <cc:Work
         rdf:about="">
        <dc:format>image/svg+xml</dc:format>
        <dc:type
           rdf:resource="http://purl.org/dc/dcmitype/StillImage" />
        <dc:title></dc:title>
      </cc:Work>
    </rdf:RDF>
  </metadata>
  <g
     inkscape:label="Camada 1"
     inkscape:groupmode="layer"
     id="layer1"
     transform="translate(-43.546163,59.108065)">
    <path
       id="path1191"
       style="fill:#000000;fill-opacity:1;stroke:none;stroke-width:0.53471547px;stroke-linecap:butt;stroke-linejoin:miter;stroke-opacity:1"
       d="m 67.301682,-27.911545 -6.423473,16.015835 c -6.440193,-4.775349 -5.277523,-19.818666 6.423473,-16.015835 z m -5.735098,21.3166558 8.236283,-21.3174598 c 7.149625,-4.08603 10.125456,-3.563707 18.047163,-3.270294 l 27.49463,11.385444 c 4.92444,2.798237 7.4691,7.966062 10.65873,12.4755578 l -9.6897,23.0131532 C 102.56302,18.654753 101.45195,17.84342 88.818979,13.632442 79.137387,9.3580778 67.093201,4.9607248 61.566584,-6.5948892 Z M 45.457356,-18.343743 h 7.751808 l 12.112188,38.03226 52.324658,0.242413 12.11216,-27.6157732 h 5.69272 l 0.36338,30.5832742 -3.997,3.573116 H 48.243174 v -39.727992 l -4.118141,-0.242062 z M 148.56937,31.324523 a 8.7945001,8.6519719 0 0 0 -8.79455,8.651949 8.7945001,8.6519719 0 0 0 8.79455,8.651992 8.7945001,8.6519719 0 0 0 8.79449,-8.651992 8.7945001,8.6519719 0 0 0 -8.79449,-8.651949 z m 0,4.859334 a 3.8551229,3.7926445 0 0 1 3.85514,3.792615 3.8551229,3.7926445 0 0 1 -3.85514,3.792655 3.8551229,3.7926445 0 0 1 -3.85514,-3.792655 3.8551229,3.7926445 0 0 1 3.85514,-3.792615 z m -8.80363,-48.072155 -0.72284,0.711111 0.36138,30.933775 c 11.1268,-2.410445 18.7745,1.412883 24.57642,7.348247 h 14.09528 V 6.6008388 l -11.0835,-18.4891368 z m 21.73686,6.4427468 7.41754,12.638988 v 1.303749 9.3630602 h -5.05988 V 9.8008918 l -0.99757,-0.913786 -9.24262,-5.249259 h -6.38504 v -8.889011 z M 49.546148,28.930269 H 59.768604 V 34.54532 H 49.546148 Z m 29.559966,0.167556 -0.03673,3.071217 3.185256,1.770419 1.854086,6.80724 1.828031,-6.711819 3.280263,-1.855661 0.02448,-3.081396 z m 53.838456,-0.0836 h -24.19331 l 0.17,5.61547 8.00783,1.927156 5.53694,5.949668 h 13.80012 V 32.365983 c 6.58581,-8.853089 20.77746,-6.327977 24.61979,0.739515 v 9.401017 h 17.54802 V 29.181361 h -16.02048 c -4.81642,-7.797737 -21.09877,-9.049785 -29.46881,-0.167205 z m -34.38044,1.053636 a 8.7944998,8.6519716 0 0 0 -8.79453,8.651952 8.7944998,8.6519716 0 0 0 8.79453,8.651992 8.7944998,8.6519716 0 0 0 8.7945,-8.651992 8.7944998,8.6519716 0 0 0 -8.7945,-8.651952 z m 0,4.85934 a 3.8551229,3.7926445 0 0 1 3.85512,3.792612 3.8551229,3.7926445 0 0 1 -3.85512,3.792652 3.8551229,3.7926445 0 0 1 -3.85516,-3.792652 3.8551229,3.7926445 0 0 1 3.85516,-3.792612 z m -29.636256,-4.97789 a 8.7944995,8.6519712 0 0 0 -8.794496,8.651955 8.7944995,8.6519712 0 0 0 8.794496,8.651988 8.7944995,8.6519712 0 0 0 8.794496,-8.651988 8.7944995,8.6519712 0 0 0 -8.794496,-8.651955 z m 0,4.859371 a 3.8551229,3.7926445 0 0 1 3.855091,3.792584 3.8551229,3.7926445 0 0 1 -3.855091,3.792688 3.8551229,3.7926445 0 0 1 -3.855162,-3.792688 3.8551229,3.7926445 0 0 1 3.855162,-3.792584 z"
       inkscape:connector-curvature="0" />
  </g>
</svg>
