<?xml version="1.0" encoding="UTF-8" standalone="no"?>
<!-- Created with Inkscape (http://www.inkscape.org/) -->

<svg
   xmlns:dc="http://purl.org/dc/elements/1.1/"
   xmlns:cc="http://creativecommons.org/ns#"
   xmlns:rdf="http://www.w3.org/1999/02/22-rdf-syntax-ns#"
   xmlns:svg="http://www.w3.org/2000/svg"
   xmlns="http://www.w3.org/2000/svg"
   xmlns:sodipodi="http://sodipodi.sourceforge.net/DTD/sodipodi-0.dtd"
   xmlns:inkscape="http://www.inkscape.org/namespaces/inkscape"
   width="512"
   height="512"
   viewBox="0 0 135.46667 135.46667"
   version="1.1"
   id="svg8"
   inkscape:version="0.92.2 (5c3e80d, 2017-08-06)"
   sodipodi:docname="reboock.svg">
  <defs
     id="defs2" />
  <sodipodi:namedview
     id="base"
     pagecolor="#ffffff"
     bordercolor="#666666"
     borderopacity="1.0"
     inkscape:pageopacity="0.0"
     inkscape:pageshadow="2"
     inkscape:zoom="0.45254834"
     inkscape:cx="-309.6253"
     inkscape:cy="212.51704"
     inkscape:document-units="mm"
     inkscape:current-layer="layer1"
     showgrid="false"
     showguides="true"
     inkscape:guide-bbox="true"
     inkscape:window-width="1920"
     inkscape:window-height="1025"
     inkscape:window-x="0"
     inkscape:window-y="27"
     inkscape:window-maximized="1"
     fit-margin-top="0"
     fit-margin-left="0"
     fit-margin-right="0"
     fit-margin-bottom="0"
     units="px" />
  <metadata
     id="metadata5">
    <rdf:RDF>
      <cc:Work
         rdf:about="">
        <dc:format>image/svg+xml</dc:format>
        <dc:type
           rdf:resource="http://purl.org/dc/dcmitype/StillImage" />
        <dc:title></dc:title>
      </cc:Work>
    </rdf:RDF>
  </metadata>
  <g
     inkscape:label="Camada 1"
     inkscape:groupmode="layer"
     id="layer1"
     transform="translate(239.96605,-90.323055)">
    <path
       id="rect967"
       style="fill:#000000;fill-opacity:1;fill-rule:nonzero;stroke:none;stroke-width:0.14870147;stroke-miterlimit:4;stroke-dasharray:none;stroke-dashoffset:0;stroke-opacity:1"
       d="m -116.22069,171.56122 h 11.08648 v 8.78877 h -11.08648 z m -121.9514,0.51699 h 9.42063 v 6.89314 h -9.42063 z m 60.48753,-0.0574 h 38.54422 v 7.18038 h -38.54422 z m 50.13499,-2.22514 a 8.5299052,8.5299052 0 0 0 -8.53009,8.53009 8.5299052,8.5299052 0 0 0 8.53009,8.52923 8.5299052,8.5299052 0 0 0 8.5301,-8.52923 8.5299052,8.5299052 0 0 0 -8.5301,-8.53009 z m 0,3.14943 a 5.3806671,5.3806671 0 0 1 5.38069,5.38066 5.3806671,5.3806671 0 0 1 -5.38069,5.38068 5.3806671,5.3806671 0 0 1 -5.38063,-5.38068 5.3806671,5.3806671 0 0 1 5.38063,-5.38066 z m -61.73981,-3.63684 a 8.5299052,8.5299052 0 0 0 -8.5301,8.53009 8.5299052,8.5299052 0 0 0 8.5301,8.52923 8.5299052,8.5299052 0 0 0 8.53012,-8.52923 8.5299052,8.5299052 0 0 0 -8.53012,-8.53009 z m 0,3.14942 a 5.3806671,5.3806671 0 0 1 5.38068,5.38067 5.3806671,5.3806671 0 0 1 -5.38068,5.38066 5.3806671,5.3806671 0 0 1 -5.38065,-5.38066 5.3806671,5.3806671 0 0 1 5.38065,-5.38067 z m -28.187,-3.01289 a 8.5299052,8.5299052 0 0 0 -8.53012,8.5301 8.5299052,8.5299052 0 0 0 8.53012,8.52922 8.5299052,8.5299052 0 0 0 8.5301,-8.52922 8.5299052,8.5299052 0 0 0 -8.5301,-8.5301 z m 0,3.14944 a 5.3806671,5.3806671 0 0 1 5.38066,5.38066 5.3806671,5.3806671 0 0 1 -5.38066,5.38067 5.3806671,5.3806671 0 0 1 -5.38067,-5.38067 5.3806671,5.3806671 0 0 1 5.38067,-5.38066 z m 73.76123,-43.33632 v 28.9972 h -95.56322 v 12.03315 h 11.41734 c 0.16488,-0.24889 0.33839,-0.49183 0.52045,-0.72838 0.26132,-0.32885 0.53891,-0.64441 0.83177,-0.94551 0.29225,-0.30123 0.59937,-0.58765 0.92024,-0.8582 0.32103,-0.27044 0.65536,-0.52464 1.00181,-0.76169 0.34649,-0.2368 0.70461,-0.45612 1.07303,-0.65715 0.36858,-0.20147 0.74703,-0.38436 1.13391,-0.54801 0.38661,-0.1636 0.78117,-0.30777 1.18218,-0.43196 0.40125,-0.12406 0.80846,-0.22798 1.22009,-0.31134 0.41137,-0.0831 0.82662,-0.14561 1.24421,-0.18727 0.41763,-0.042 0.83711,-0.0631 1.25685,-0.0632 0.29748,2e-4 0.59483,0.011 0.89153,0.0322 0.41853,0.0298 0.83532,0.0803 1.2488,0.15165 0.41372,0.0714 0.82361,0.16339 1.22814,0.27573 0.40461,0.11216 0.80338,0.2444 1.19481,0.39635 0.3913,0.15231 0.77472,0.32409 1.14885,0.51469 0.37402,0.19039 0.73829,0.39937 1.09144,0.62613 0.35355,0.22671 0.69558,0.47094 1.02477,0.73182 0.32881,0.26095 0.64437,0.53817 0.94552,0.83062 0.30084,0.29266 0.58688,0.60017 0.85704,0.92139 0.27043,0.32104 0.52464,0.65539 0.76167,1.00181 l 0.006,0.01 h 8.59117 c 0.0523,-0.0753 0.10554,-0.14999 0.15968,-0.22403 0.23929,-0.30127 0.49352,-0.59037 0.76169,-0.86624 0.2678,-0.27622 0.54925,-0.53887 0.84328,-0.78697 0.29415,-0.2476 0.60052,-0.48034 0.91791,-0.69736 0.31756,-0.21733 0.64577,-0.41862 0.98343,-0.60315 0.33764,-0.18418 0.68426,-0.35135 1.03857,-0.5009 0.35433,-0.14973 0.71589,-0.28162 1.08339,-0.39521 0.36721,-0.11388 0.73991,-0.20938 1.11668,-0.28607 0.37677,-0.0764 0.75714,-0.13391 1.13967,-0.17232 0.38291,-0.0383 0.7675,-0.0575 1.1523,-0.0574 0.27254,-7e-5 0.54499,0.01 0.81683,0.0288 0.38351,0.0272 0.7654,0.0737 1.14428,0.13903 0.37887,0.0654 0.75427,0.14979 1.12473,0.25274 0.37079,0.1031 0.73621,0.2246 1.09486,0.36419 0.35843,0.13936 0.70964,0.29658 1.05236,0.47103 0.34289,0.17429 0.67688,0.36563 1.00066,0.57328 0.32347,0.20788 0.63635,0.43181 0.93746,0.67094 0.30125,0.23891 0.59034,0.49275 0.86625,0.76055 0.27586,0.26818 0.53811,0.55 0.7858,0.84439 0.12711,0.15835 0.25015,0.32001 0.3688,0.48483 h 41.53125 c 0.0854,-0.1236 0.17267,-0.24577 0.26195,-0.36649 0.28436,-0.35877 0.5865,-0.70309 0.90528,-1.03167 0.31892,-0.32827 0.65404,-0.64038 1.00411,-0.93518 0.35012,-0.2949 0.71476,-0.57214 1.09257,-0.83062 0.37803,-0.25833 0.76875,-0.49759 1.17068,-0.71689 0.40147,-0.21959 0.81366,-0.41898 1.23502,-0.5974 0.42157,-0.17801 0.85179,-0.33484 1.28903,-0.46989 0.43751,-0.13547 0.88151,-0.24897 1.33037,-0.34005 0.44857,-0.0907 0.9014,-0.15898 1.35679,-0.20451 0.45543,-0.0458 0.91287,-0.0688 1.3706,-0.0689 0.32429,0 0.64846,0.011 0.97193,0.0345 0.45666,0.0325 0.91141,0.0877 1.36257,0.16544 0.45087,0.078 0.89757,0.17842 1.33841,0.301 0.4412,0.1222 0.87601,0.26635 1.30281,0.43197 0.42648,0.16589 0.84444,0.353 1.25225,0.56064 0.4079,0.20788 0.80513,0.43601 1.19022,0.68358 0.38528,0.247 0.75797,0.51309 1.11668,0.79731 0.35841,0.28478 0.70234,0.5873 1.03052,0.90645 0.32868,0.31888 0.64116,0.65399 0.93633,1.0041 0.17807,0.2202 0.34938,0.44586 0.51353,0.67667 h 8.35108 v -12.03317 -11.52305 l -12.4054,-17.47413 z m 4.46791,7.27458 h 15.613 l 8.83932,15.30969 v 5.60528 h -4.79303 l -7.31136,-7.31134 h -12.34793 c -0.006,-4.16951 0,-13.60363 0,-13.60363 z m 14.54685,33.75577 a 8.6603795,8.6603795 0 0 0 -0.28949,-0.10567 8.6603795,8.6603795 0 0 0 -0.83868,-0.21369 8.6603795,8.6603795 0 0 0 -0.85591,-0.12983 8.6603795,8.6603795 0 0 0 -0.86507,-0.0436 8.6603795,8.6603795 0 0 0 -0.61233,0.0218 8.6603795,8.6603795 0 0 0 -0.85937,0.10457 8.6603795,8.6603795 0 0 0 -0.84556,0.18955 8.6603795,8.6603795 0 0 0 -0.53192,0.17693 z m -26.65121,-41.03035 v 19.65926 h -87.97963 v 7.47448 h 87.97963 5.60527 v -7.47448 -19.65926 z"
       inkscape:connector-curvature="0" />
  </g>
</svg>
