<?xml version="1.0" encoding="UTF-8" standalone="no"?>
<!-- Created with Inkscape (http://www.inkscape.org/) -->

<svg
   xmlns:dc="http://purl.org/dc/elements/1.1/"
   xmlns:cc="http://creativecommons.org/ns#"
   xmlns:rdf="http://www.w3.org/1999/02/22-rdf-syntax-ns#"
   xmlns:svg="http://www.w3.org/2000/svg"
   xmlns="http://www.w3.org/2000/svg"
   xmlns:sodipodi="http://sodipodi.sourceforge.net/DTD/sodipodi-0.dtd"
   xmlns:inkscape="http://www.inkscape.org/namespaces/inkscape"
   width="512"
   height="512"
   viewBox="0 0 135.46666 135.46667"
   version="1.1"
   id="svg9965"
   inkscape:version="0.92.2 (5c3e80d, 2017-08-06)"
   sodipodi:docname="truck3.svg">
  <defs
     id="defs9959" />
  <sodipodi:namedview
     id="base"
     pagecolor="#ffffff"
     bordercolor="#666666"
     borderopacity="1.0"
     inkscape:pageopacity="0.0"
     inkscape:pageshadow="2"
     inkscape:zoom="0.7"
     inkscape:cx="-81.492247"
     inkscape:cy="80.8671"
     inkscape:document-units="mm"
     inkscape:current-layer="layer1"
     showgrid="false"
     fit-margin-top="0"
     fit-margin-left="0"
     fit-margin-right="0"
     fit-margin-bottom="0"
     inkscape:window-width="1920"
     inkscape:window-height="1025"
     inkscape:window-x="0"
     inkscape:window-y="27"
     inkscape:window-maximized="1"
     units="px" />
  <metadata
     id="metadata9962">
    <rdf:RDF>
      <cc:Work
         rdf:about="">
        <dc:format>image/svg+xml</dc:format>
        <dc:type
           rdf:resource="http://purl.org/dc/dcmitype/StillImage" />
        <dc:title></dc:title>
      </cc:Work>
    </rdf:RDF>
  </metadata>
  <g
     inkscape:label="Camada 1"
     inkscape:groupmode="layer"
     id="layer1"
     transform="translate(15.838142,69.938649)">
    <path
       id="path1685"
       style="fill:#000000;fill-opacity:1;stroke:none;stroke-width:0.75275642px;stroke-linecap:butt;stroke-linejoin:miter;stroke-opacity:1"
       d="m 78.356724,-24.504528 -13.14765,0.445698 0.222856,33.091957 -18.71869,0.111484 0.334262,-41.225704 c 10.444172,-9.705195 23.137753,1.519864 31.309222,7.576565 z m 8.245121,2.005497 -16.044571,-0.111482 v 48.579439 l 15.821749,0.22283 -0.222858,-10.807817 C 91.307731,6.87838 99.527437,8.316945 106.43475,12.598432 l 0.33425,3.899726 h 10.47355 l -0.22284,-9.470769 c -0.96459,-10.36049 -12.68714,-14.126115 -24.178284,-15.264622 -2.038721,-6.434991 -1.760086,-9.591759 -6.239581,-14.26187 z m -11.810576,3.454045 c 9.516354,0.138114 11.881793,-2.360832 13.370482,8.0223 l 0.557091,4.791093 -4.791085,0.222831 C 81.352413,-8.150513 78.438605,-8.140439 75.236938,-8.57143 Z m 33.574931,37.79362 h 9.76949 v 7.405933 H 108.3662 Z M 97.139105,15.005953 a 7.7210887,7.7210887 0 0 0 -7.721389,7.721407 7.7210887,7.7210887 0 0 0 7.721389,7.721423 7.7210887,7.7210887 0 0 0 7.721425,-7.721423 7.7210887,7.7210887 0 0 0 -7.721425,-7.721407 z m -0.144761,2.71904 a 4.8573984,4.8573984 0 0 1 4.856766,4.856773 4.8573984,4.8573984 0 0 1 -4.856766,4.857782 4.8573984,4.8573984 0 0 1 -4.857784,-4.857782 4.8573984,4.8573984 0 0 1 4.857784,-4.856773 z M 31.470722,14.690802 a 8.3907453,8.3907453 0 0 0 -8.391109,8.39109 8.3907453,8.3907453 0 0 0 8.391109,8.391105 8.3907453,8.3907453 0 0 0 8.391093,-8.391105 8.3907453,8.3907453 0 0 0 -8.391093,-8.39109 z m -0.157149,2.954868 a 5.2786846,5.2786846 0 0 1 5.277984,5.277997 5.2786846,5.2786846 0 0 1 -5.277984,5.27911 5.2786846,5.2786846 0 0 1 -5.279115,-5.27911 5.2786846,5.2786846 0 0 1 5.279115,-5.277997 z M 3.7772685,14.257565 a 8.3907453,8.3907453 0 0 0 -8.3910915,8.39109 8.3907453,8.3907453 0 0 0 8.3910915,8.391086 8.3907453,8.3907453 0 0 0 8.3911055,-8.391086 8.3907453,8.3907453 0 0 0 -8.3911055,-8.39109 z m -0.1571554,2.954862 a 5.2786846,5.2786846 0 0 1 5.278008,5.278013 5.2786846,5.2786846 0 0 1 -5.278008,5.279103 5.2786846,5.2786846 0 0 1 -5.2791076,-5.279103 5.2786846,5.2786846 0 0 1 5.2791076,-5.278013 z m -7.3492572,-4.056815 h -6.6083599 c -0.576615,0.383354 -1.081694,0.858798 -1.507532,1.417275 -0.442513,0.580376 -0.808841,1.238474 -1.113083,1.940944 -0.304222,0.702459 -0.546644,1.4488 -0.737605,2.205022 -0.190968,0.756226 -0.330701,1.522416 -0.43342,2.264068 -0.169537,1.22459 -0.196699,2.268806 -0.216166,3.206675 v 2.336507 h 4.6618433 a 13.039139,13.039139 0 0 1 -0.01902,-0.08579 13.039139,13.039139 0 0 1 -0.157155,-1.29359 13.039139,13.039139 0 0 1 -0.03238,-0.922562 13.039139,13.039139 0 0 1 0.06453,-1.3014 13.039139,13.039139 0 0 1 0.194996,-1.289126 13.039139,13.039139 0 0 1 0.321994,-1.262396 13.039139,13.039139 0 0 1 0.447914,-1.224518 13.039139,13.039139 0 0 1 0.5660178,-1.173259 13.039139,13.039139 0 0 1 0.6819008,-1.111973 13.039139,13.039139 0 0 1 0.7888532,-1.037347 13.039139,13.039139 0 0 1 0.8880291,-0.953745 13.039139,13.039139 0 0 1 0.9793795,-0.860166 13.039139,13.039139 0 0 1 1.0596113,-0.757674 13.039139,13.039139 0 0 1 0.1693565,-0.09687 z m 27.3593591,0 H 10.00791 c 0.169358,0.09873 0.336601,0.201263 0.501402,0.307514 0.358696,0.24514 0.704885,0.508057 1.037321,0.787747 0.332547,0.280283 0.650877,0.577041 0.95377,0.889132 0.302856,0.311924 0.589941,0.638794 0.860167,0.979404 0.270429,0.340326 0.523664,0.693971 0.758774,1.059595 0.234875,0.365938 0.451297,0.74338 0.648455,1.130928 0.19727,0.387525 0.375037,0.784674 0.53261,1.189971 0.157155,0.405172 0.294041,0.817942 0.410017,1.236774 0.11666,0.418745 0.212151,0.843027 0.286365,1.271306 0.07395,0.428316 0.244504,0.938837 0.275272,1.372386 l 0.19714,-0.563471 c 0.09429,-0.464627 0.211852,-0.924262 0.352087,-1.377152 0.139958,-0.452773 0.30247,-0.898265 0.486906,-1.33483 0.184698,-0.436787 0.391043,-0.864047 0.618396,-1.280214 0.227348,-0.41623 0.475389,-0.820833 0.743169,-1.212265 0.267712,-0.391075 0.554778,-0.768514 0.860163,-1.130919 0.305578,-0.362833 0.629102,-0.71017 0.969381,-1.040664 0.339942,-0.330316 0.69619,-0.643428 1.067397,-0.938175 0.371483,-0.294682 0.757501,-0.570598 1.156551,-0.826733 0.295849,-0.184507 0.598369,-0.358065 0.906962,-0.520334 z M 44.584004,26.526103 H 66.323289 V 13.155612 H 37.211283 a 14.220935,14.220935 0 0 1 0.01293,0.0072 14.220935,14.220935 0 0 1 1.21225,0.743172 14.220935,14.220935 0 0 1 1.132037,0.860166 14.220935,14.220935 0 0 1 1.039558,0.969349 14.220935,14.220935 0 0 1 0.938165,1.067422 14.220935,14.220935 0 0 1 0.826738,1.15655 14.220935,14.220935 0 0 1 0.707527,1.23342 14.220935,14.220935 0 0 1 0.580494,1.296934 14.220935,14.220935 0 0 1 0.447914,1.349314 14.220935,14.220935 0 0 1 0.311975,1.387189 14.220935,14.220935 0 0 1 0.171567,1.410574 14.220935,14.220935 0 0 1 0.03568,1.006133 14.220935,14.220935 0 0 1 -0.04457,0.883565 z"
       inkscape:connector-curvature="0" />
  </g>
</svg>
