<?xml version="1.0" encoding="UTF-8" standalone="no"?>
<!-- Created with Inkscape (http://www.inkscape.org/) -->

<svg
   xmlns:dc="http://purl.org/dc/elements/1.1/"
   xmlns:cc="http://creativecommons.org/ns#"
   xmlns:rdf="http://www.w3.org/1999/02/22-rdf-syntax-ns#"
   xmlns:svg="http://www.w3.org/2000/svg"
   xmlns="http://www.w3.org/2000/svg"
   xmlns:sodipodi="http://sodipodi.sourceforge.net/DTD/sodipodi-0.dtd"
   xmlns:inkscape="http://www.inkscape.org/namespaces/inkscape"
   width="512"
   height="512"
   viewBox="0 0 135.46667 135.46667"
   version="1.1"
   id="svg12890"
   inkscape:version="0.92.2 (5c3e80d, 2017-08-06)"
   sodipodi:docname="truck5.svg">
  <defs
     id="defs12884" />
  <sodipodi:namedview
     id="base"
     pagecolor="#ffffff"
     bordercolor="#666666"
     borderopacity="1.0"
     inkscape:pageopacity="0.0"
     inkscape:pageshadow="2"
     inkscape:zoom="0.98994949"
     inkscape:cx="165.44178"
     inkscape:cy="230.26859"
     inkscape:document-units="mm"
     inkscape:current-layer="layer1"
     showgrid="false"
     fit-margin-top="0"
     fit-margin-left="0"
     fit-margin-right="0"
     fit-margin-bottom="0"
     inkscape:window-width="1920"
     inkscape:window-height="1025"
     inkscape:window-x="0"
     inkscape:window-y="27"
     inkscape:window-maximized="1"
     units="px" />
  <metadata
     id="metadata12887">
    <rdf:RDF>
      <cc:Work
         rdf:about="">
        <dc:format>image/svg+xml</dc:format>
        <dc:type
           rdf:resource="http://purl.org/dc/dcmitype/StillImage" />
        <dc:title></dc:title>
      </cc:Work>
    </rdf:RDF>
  </metadata>
  <g
     inkscape:label="Camada 1"
     inkscape:groupmode="layer"
     id="layer1"
     transform="translate(-13.559581,68.427424)">
    <path
       id="path1800"
       style="fill:#000000;fill-opacity:1;stroke:none;stroke-width:0.85402799px;stroke-linecap:butt;stroke-linejoin:miter;stroke-opacity:1"
       d="m 126.62314,-11.598666 -7.12345,0.241475 0.12081,17.929312 -10.14183,0.060345 0.18104,-22.336205 c 5.65867,-5.258297 12.53608,0.823468 16.96341,4.105011 z m 4.46721,1.086584 -8.69299,-0.06034 v 26.320473 l 8.57228,0.120744 -0.1208,-5.855707 c 2.79113,-4.6083516 7.24459,-3.8289308 10.98698,-1.5092081 l 0.18123,2.1128901 h 5.67459 l -0.12082,-5.131294 c -0.52261,-5.6133472 -6.87394,-7.6535719 -13.09987,-8.2704181 -1.10458,-3.4864897 -0.95361,-5.1968388 -3.38063,-7.7271199 z m -6.399,1.8714012 c 5.15601,0.074845 6.43759,-1.279108 7.24416,4.3465098 l 0.30185,2.5958272 -2.59582,0.1207304 c -1.39534,-1.1604036 -2.97405,-1.1549571 -4.70871,-1.3884636 z m 18.19103,20.4767078 h 5.29313 v 4.012545 h -5.29313 z m -6.08289,-2.0278137 a 4.1833083,4.1833083 0 0 0 -4.18347,4.1834897 4.1833083,4.1833083 0 0 0 4.18347,4.183487 4.1833083,4.1833083 0 0 0 4.18348,-4.183487 4.1833083,4.1833083 0 0 0 -4.18348,-4.1834897 z m -0.0783,1.4731877 a 2.6317526,2.6317526 0 0 1 2.63142,2.631425 2.6317526,2.6317526 0 0 1 -2.63142,2.631964 2.6317526,2.6317526 0 0 1 -2.63197,-2.631964 2.6317526,2.6317526 0 0 1 2.63197,-2.631425 z M 101.22018,9.6374601 a 4.5461302,4.5461302 0 0 0 -4.546311,4.5463179 4.5461302,4.5461302 0 0 0 4.546311,4.54633 4.5461302,4.5461302 0 0 0 4.5463,-4.54633 4.5461302,4.5461302 0 0 0 -4.5463,-4.5463179 z m -0.085,1.6009679 a 2.8600067,2.8600067 0 0 1 2.85962,2.859636 2.8600067,2.8600067 0 0 1 -2.85962,2.86024 2.8600067,2.8600067 0 0 1 -2.860231,-2.86024 2.8600067,2.8600067 0 0 1 2.860231,-2.859636 z M 86.215851,9.4027389 a 4.5461302,4.5461302 0 0 0 -4.546308,4.5463211 4.5461302,4.5461302 0 0 0 4.546308,4.546315 4.5461302,4.5461302 0 0 0 4.546331,-4.546315 4.5461302,4.5461302 0 0 0 -4.546331,-4.5463211 z m -0.08499,1.6009561 a 2.8600067,2.8600067 0 0 1 2.859634,2.859637 2.8600067,2.8600067 0 0 1 -2.859634,2.86024 2.8600067,2.8600067 0 0 1 -2.860245,-2.86024 2.8600067,2.8600067 0 0 1 2.860245,-2.859637 z M 82.148905,8.8056935 h -3.580442 c -0.312397,0.207706 -0.586049,0.4653048 -0.816776,0.7678821 -0.239765,0.314458 -0.438239,0.6710074 -0.603066,1.0516114 -0.16486,0.380607 -0.29619,0.784962 -0.399642,1.194693 -0.103488,0.409717 -0.179109,0.824847 -0.234837,1.226668 -0.09194,0.663485 -0.106552,1.22925 -0.117161,1.7374 v 1.265919 h 2.525792 a 7.0646437,7.0646437 0 0 1 -0.0094,-0.04644 7.0646437,7.0646437 0 0 1 -0.08521,-0.700874 7.0646437,7.0646437 0 0 1 -0.01733,-0.499839 7.0646437,7.0646437 0 0 1 0.03501,-0.705106 7.0646437,7.0646437 0 0 1 0.105609,-0.698458 7.0646437,7.0646437 0 0 1 0.174493,-0.683974 7.0646437,7.0646437 0 0 1 0.242675,-0.663439 7.0646437,7.0646437 0 0 1 0.306668,-0.635681 7.0646437,7.0646437 0 0 1 0.369466,-0.60248 7.0646437,7.0646437 0 0 1 0.427403,-0.562014 7.0646437,7.0646437 0 0 1 0.48112,-0.5167547 7.0646437,7.0646437 0 0 1 0.530638,-0.4660466 7.0646437,7.0646437 0 0 1 0.574119,-0.4104969 7.0646437,7.0646437 0 0 1 0.09182,-0.052449 z m 14.823378,0 h -7.3806 c 0.09182,0.053512 0.18237,0.1090269 0.27166,0.1666177 0.194335,0.1328242 0.381899,0.2752672 0.562025,0.4268096 0.180066,0.1518602 0.352635,0.3126312 0.516755,0.4817348 0.164097,0.1690104 0.31963,0.3460944 0.466018,0.5306394 0.146607,0.184392 0.283745,0.375996 0.411125,0.574096 0.127153,0.198264 0.244512,0.402765 0.351343,0.612731 0.106907,0.209972 0.203185,0.42515 0.28856,0.644735 0.08521,0.219516 0.159289,0.443159 0.222155,0.670088 0.06304,0.226873 0.114804,0.456761 0.15505,0.688792 0.04005,0.232071 0.132557,0.508671 0.14911,0.743567 l 0.106784,-0.305289 c 0.05117,-0.251741 0.114804,-0.500771 0.190836,-0.746146 0.07579,-0.245316 0.163909,-0.486684 0.263808,-0.723211 0.100072,-0.236652 0.21187,-0.468143 0.33504,-0.693633 0.123125,-0.225506 0.25758,-0.444717 0.402676,-0.656794 0.145058,-0.211891 0.300569,-0.416391 0.466033,-0.612745 0.165639,-0.196592 0.340837,-0.384767 0.525211,-0.56383 0.184111,-0.1789706 0.377199,-0.3486184 0.57833,-0.5083048 0.201258,-0.1596745 0.410391,-0.309166 0.626607,-0.4479313 0.160257,-0.09995 0.324194,-0.1939974 0.491405,-0.2819145 z m 11.352807,7.2441735 h 11.77844 V 8.8056935 h -15.77299 a 7.7049441,7.7049441 0 0 1 0.008,0.00358 7.7049441,7.7049441 0 0 1 0.65682,0.4026578 7.7049441,7.7049441 0 0 1 0.61334,0.4660357 7.7049441,7.7049441 0 0 1 0.56323,0.525206 7.7049441,7.7049441 0 0 1 0.5083,0.578328 7.7049441,7.7049441 0 0 1 0.44793,0.626616 7.7049441,7.7049441 0 0 1 0.38333,0.668274 7.7049441,7.7049441 0 0 1 0.31453,0.702676 7.7049441,7.7049441 0 0 1 0.24267,0.731061 7.7049441,7.7049441 0 0 1 0.16911,0.75158 7.7049441,7.7049441 0 0 1 0.0929,0.764266 7.7049441,7.7049441 0 0 1 0.0193,0.545122 7.7049441,7.7049441 0 0 1 -0.0243,0.478717 z M 39.48004,9.0517536 a 4.3315025,4.3315025 0 0 0 -4.330928,4.3309634 4.3315025,4.3315025 0 0 0 4.330928,4.331659 4.3315025,4.3315025 0 0 0 4.33167,-4.331659 4.3315025,4.3315025 0 0 0 -4.33167,-4.3309634 z m 0,1.8993254 a 2.4317205,2.4317205 0 0 1 2.43237,2.431638 2.4317205,2.4317205 0 0 1 -2.432369,2.431639 2.4317205,2.4317205 0 0 1 -2.431615,-2.431639 2.4317205,2.4317205 0 0 1 2.431614,-2.431638 z M 24.882059,9.1994654 a 4.3315023,4.3315023 0 0 0 -4.33096,4.3309516 4.3315023,4.3315023 0 0 0 4.33096,4.331683 4.3315023,4.3315023 0 0 0 4.331693,-4.331683 4.3315023,4.3315023 0 0 0 -4.331693,-4.3309516 z m 0,1.8993246 a 2.4317205,2.4317205 0 0 1 2.432344,2.431627 2.4317205,2.4317205 0 0 1 -2.432344,2.431649 A 2.4317205,2.4317205 0 0 1 22.4504,13.530417 2.4317205,2.4317205 0 0 1 24.882059,11.09879 Z M 42.816273,8.0592638 h 4.939432 c 2.29036,1.7407003 2.32314,5.1987392 1.621159,6.8138852 l -2.533028,-0.05068 C 46.826505,11.013302 45.348099,9.2497475 42.816273,8.0592409 Z m -14.38767,0 h 7.269843 C 33.787993,9.3758767 32.814433,11.945421 32.152195,14.467862 31.579667,11.910308 30.400642,9.5750127 28.428603,8.0592638 Z M 14.57288,15.02513 18.1698,15.07581 c -0.09076,-2.196011 0.378415,-4.527603 1.646466,-5.2434002 L 19.993444,8.0592737 C 16.118192,9.0986391 14.388418,12.26966 14.572739,15.025148 Z M 14.410318,-20.118289 H 107.01141 V 6.6325036 H 14.410318 Z"
       inkscape:connector-curvature="0" />
  </g>
</svg>
