<?xml version="1.0" encoding="UTF-8" standalone="no"?>
<!-- Created with Inkscape (http://www.inkscape.org/) -->

<svg
   xmlns:dc="http://purl.org/dc/elements/1.1/"
   xmlns:cc="http://creativecommons.org/ns#"
   xmlns:rdf="http://www.w3.org/1999/02/22-rdf-syntax-ns#"
   xmlns:svg="http://www.w3.org/2000/svg"
   xmlns="http://www.w3.org/2000/svg"
   xmlns:sodipodi="http://sodipodi.sourceforge.net/DTD/sodipodi-0.dtd"
   xmlns:inkscape="http://www.inkscape.org/namespaces/inkscape"
   width="512"
   height="512"
   viewBox="0 0 135.46666 135.46666"
   version="1.1"
   id="svg13475"
   inkscape:version="0.92.2 (5c3e80d, 2017-08-06)"
   sodipodi:docname="rebock-carregado.svg">
  <defs
     id="defs13469" />
  <sodipodi:namedview
     id="base"
     pagecolor="#ffffff"
     bordercolor="#666666"
     borderopacity="1.0"
     inkscape:pageopacity="0.0"
     inkscape:pageshadow="2"
     inkscape:zoom="0.98994949"
     inkscape:cx="29.341063"
     inkscape:cy="-39.226393"
     inkscape:document-units="mm"
     inkscape:current-layer="layer1"
     showgrid="false"
     fit-margin-top="0"
     fit-margin-left="0"
     fit-margin-right="0"
     fit-margin-bottom="0"
     inkscape:window-width="1920"
     inkscape:window-height="1025"
     inkscape:window-x="0"
     inkscape:window-y="27"
     inkscape:window-maximized="1"
     units="px" />
  <metadata
     id="metadata13472">
    <rdf:RDF>
      <cc:Work
         rdf:about="">
        <dc:format>image/svg+xml</dc:format>
        <dc:type
           rdf:resource="http://purl.org/dc/dcmitype/StillImage" />
        <dc:title></dc:title>
      </cc:Work>
    </rdf:RDF>
  </metadata>
  <g
     inkscape:label="Camada 1"
     inkscape:groupmode="layer"
     id="layer1"
     transform="translate(1.697836,74.856223)">
    <path
       id="rect1107-7"
       style="fill:#000000;fill-opacity:1;fill-rule:nonzero;stroke:none;stroke-width:0.16384909;stroke-miterlimit:4;stroke-dasharray:none;stroke-dashoffset:0;stroke-opacity:1"
       d="m 76.638138,-18.360537 h 9.377868 v 6.189459 h -9.377868 z m -54.561089,0.512292 h 37.786698 v 4.479024 H 22.077049 Z M -0.1981799,-18.951318 H 6.614425 v 4.682878 h -6.8126049 z m 14.7254629,-4.21523 a 6.3627691,6.3627691 0 0 0 -6.3629083,6.362909 6.3627691,6.3627691 0 0 0 6.3629083,6.362264 6.3627691,6.3627691 0 0 0 6.362945,-6.362264 6.3627691,6.3627691 0 0 0 -6.362945,-6.362909 z m 0,2.349275 a 4.0136367,4.0136367 0 0 1 4.01367,4.013634 4.0136367,4.0136367 0 0 1 -4.01367,4.013646 4.0136367,4.0136367 0 0 1 -4.013598,-4.013646 4.0136367,4.0136367 0 0 1 4.013598,-4.013634 z m 52.632316,-2.579503 a 6.3627691,6.3627691 0 0 0 -6.36292,6.362908 6.3627691,6.3627691 0 0 0 6.36292,6.362265 6.3627691,6.3627691 0 0 0 6.362921,-6.362265 6.3627691,6.3627691 0 0 0 -6.362921,-6.362908 z m 0,2.349274 a 4.0136367,4.0136367 0 0 1 4.013646,4.013634 4.0136367,4.0136367 0 0 1 -4.013646,4.013646 4.0136367,4.0136367 0 0 1 -4.013621,-4.013646 4.0136367,4.0136367 0 0 1 4.013621,-4.013634 z M 36.48048,-42.290976 c -25.94822,0.530065 -32.0379591,8.080864 -35.78188345,19.532674 l -0.81540925,2.768659 h 6.6166946 c 3.7171991,-6.932284 15.2746831,-5.60847 17.8152881,1.140186 l 35.546636,0.04045 c 0.240457,-7.483971 13.320206,-7.2142 16.837353,-0.304778 l 9.276079,0.162868 -0.01385,-2.727758 c -5.59016,-7.503252 -10.976191,-9.545656 -19.788631,-11.339999 -11.017508,-6.442514 -19.879,-9.189781 -29.692945,-9.272266 z m 1.028507,2.173238 c 8.398316,0.210877 18.112308,2.62518 23.839977,8.407342 l 0.230314,2.87923 -24.127847,-0.172756 z m -2.821683,-0.115163 -3.6e-5,11.228991 -21.93975,-0.287932 c 0.520055,-7.584886 7.856734,-9.904532 21.939786,-10.941059 z m 87.498346,52.946694 h 11.1138 v 8.810422 h -11.1138 z M -0.06638641,13.232051 H 9.3774724 V 20.14219 H -0.06638641 Z M 60.570119,13.174469 h 38.639234 v 7.198059 H 60.570119 Z m 50.258641,-2.230638 a 8.5509321,8.5509321 0 0 0 -8.55114,8.551113 8.5509321,8.5509321 0 0 0 8.55114,8.550253 8.5509321,8.5509321 0 0 0 8.55112,-8.550253 8.5509321,8.5509321 0 0 0 -8.55112,-8.551113 z m 0,3.15719 a 5.393931,5.393931 0 0 1 5.39394,5.393923 5.393931,5.393931 0 0 1 -5.39394,5.393936 5.393931,5.393931 0 0 1 -5.39391,-5.393936 5.393931,5.393931 0 0 1 5.39391,-5.393923 z M 48.936734,10.455213 a 8.5509321,8.5509321 0 0 0 -8.551101,8.551115 8.5509321,8.5509321 0 0 0 8.551101,8.550251 8.5509321,8.5509321 0 0 0 8.551149,-8.550251 8.5509321,8.5509321 0 0 0 -8.551149,-8.551115 z m 0,3.157178 a 5.393931,5.393931 0 0 1 5.393971,5.393937 5.393931,5.393931 0 0 1 -5.393971,5.393923 5.393931,5.393931 0 0 1 -5.393914,-5.393923 5.393931,5.393931 0 0 1 5.393914,-5.393937 z M 20.68025,10.592085 a 8.5509321,8.5509321 0 0 0 -8.551126,8.551127 8.5509321,8.5509321 0 0 0 8.551126,8.550248 8.5509321,8.5509321 0 0 0 8.551125,-8.550248 8.5509321,8.5509321 0 0 0 -8.551125,-8.551127 z m 0,3.157191 a 5.393931,5.393931 0 0 1 5.393949,5.393936 5.393931,5.393931 0 0 1 -5.393949,5.393923 5.393931,5.393931 0 0 1 -5.393925,-5.393923 5.393931,5.393931 0 0 1 5.393925,-5.393936 z M 94.623329,-29.693867 V -0.62518187 H -1.1754733 V 11.437623 H 10.270022 c 0.165163,-0.249495 0.339232,-0.493038 0.521719,-0.730169 0.261959,-0.32966 0.540257,-0.645993 0.833801,-0.9478439 0.292997,-0.301964 0.600876,-0.589094 0.922518,-0.860311 0.321837,-0.271104 0.657012,-0.525944 1.004274,-0.763574 0.347359,-0.237371 0.706369,-0.457235 1.075692,-0.658759 0.369505,-0.201972 0.748887,-0.38531 1.136736,-0.549358 0.387569,-0.164009 0.783083,-0.308533 1.185084,-0.433037 0.402208,-0.124359 0.810441,-0.228542 1.223096,-0.312107 0.412363,-0.08333 0.828638,-0.145984 1.247282,-0.187735 0.418656,-0.04215 0.839147,-0.06329 1.259941,-0.06329 0.298184,1.8e-4 0.596271,0.01093 0.893727,0.03219 0.419567,0.02976 0.837373,0.08054 1.251862,0.15202 0.414757,0.07155 0.825638,0.163804 1.231162,0.276389 0.405609,0.112369 0.805375,0.245001 1.197755,0.397337 0.392271,0.152702 0.776645,0.324886 1.15169,0.515962 0.374947,0.190857 0.740104,0.400335 1.09412,0.627673 0.354466,0.227253 0.697307,0.472095 1.027295,0.73363 0.329635,0.261581 0.645981,0.53948 0.947859,0.832671 0.30161,0.293373 0.588339,0.6016429 0.859142,0.9236499 0.271118,0.321823 0.525935,0.657011 0.763586,1.004284 l 0.0061,0.01093 h 8.612363 c 0.05236,-0.07544 0.10593,-0.150368 0.160001,-0.224583 0.239887,-0.302008 0.494738,-0.591825 0.763574,-0.868362 0.268446,-0.276899 0.550596,-0.5401969 0.845367,-0.7889139 0.294867,-0.248207 0.601991,-0.481534 0.920187,-0.699078 0.3183,-0.217876 0.647339,-0.419654 0.985846,-0.604644 0.338465,-0.184599 0.685945,-0.352207 1.041106,-0.502125 0.355205,-0.150089 0.717653,-0.282318 1.086053,-0.39618 0.368156,-0.114191 0.741756,-0.209906 1.119448,-0.28678 0.377717,-0.07653 0.75902,-0.134235 1.142481,-0.172732 0.383841,-0.03851 0.769381,-0.0577 1.155142,-0.05758 0.273196,-8.2e-5 0.546319,0.0097 0.81886,0.0288 0.384432,0.02732 0.767277,0.07386 1.147084,0.139373 0.37982,0.0656 0.756139,0.150175 1.127489,0.253358 0.37173,0.10338 0.738054,0.225164 1.097573,0.365084 0.359313,0.139712 0.711386,0.297322 1.054957,0.472204 0.343725,0.174725 0.67855,0.366516 1.003131,0.574684 0.324279,0.2084 0.637904,0.432882 0.939767,0.672587 0.301999,0.239522 0.591804,0.493974 0.868388,0.7624299 0.276536,0.268848 0.539444,0.551363 0.787747,0.846486 0.12748,0.158725 0.250746,0.320792 0.369698,0.486016 h 41.63363 c 0.08564,-0.123887 0.173082,-0.246362 0.262565,-0.367391 0.28509,-0.359654 0.588,-0.704828 0.90755,-1.034219 0.31968,-0.3290639 0.65564,-0.6419489 1.00658,-0.9374719 0.35097,-0.295634 0.7165,-0.573556 1.09525,-0.832671 0.37896,-0.258971 0.77066,-0.498821 1.17358,-0.718653 0.40246,-0.220132 0.81565,-0.420017 1.23806,-0.598884 0.42261,-0.178454 0.8539,-0.335661 1.29222,-0.471038 0.43855,-0.135827 0.88367,-0.249591 1.33365,-0.340909 0.44967,-0.09099 0.90362,-0.159367 1.36014,-0.204983 0.45655,-0.04592 0.91511,-0.069 1.37396,-0.06912 0.32507,1.2e-5 0.65007,0.01093 0.97435,0.0345 0.45777,0.03243 0.91364,0.08783 1.36588,0.165831 0.45201,0.07811 0.89981,0.178854 1.34172,0.301745 0.4423,0.122488 0.87818,0.266999 1.30603,0.433027 0.42757,0.166293 0.84652,0.353881 1.25534,0.562026 0.4089,0.208387 0.80712,0.437097 1.19317,0.685268 0.38622,0.247589 0.75983,0.514358 1.11943,0.799264 0.35928,0.285478 0.70408,0.588753 1.03307,0.908683 0.32945,0.3196599 0.64271,0.6556139 0.93861,1.0065799 0.17845,0.220742 0.35023,0.446973 0.51481,0.678344 h 8.37163 V -0.62467187 -12.176131 l -12.43597,-17.517214 z m 4.478925,7.292509 h 15.651496 l 8.86108,15.3474381 v 5.619098 H 118.81 l -7.32938,-7.329365 H 99.102254 c -0.0061,-4.1797821 0,-13.6371711 0,-13.6371711 z m 14.582716,33.838981 a 8.681728,8.681728 0 0 0 -0.29023,-0.10593 8.681728,8.681728 0 0 0 -0.84072,-0.214217 8.681728,8.681728 0 0 0 -0.85802,-0.130153 8.681728,8.681728 0 0 0 -0.86723,-0.04373 8.681728,8.681728 0 0 0 -0.61384,0.02185 8.681728,8.681728 0 0 0 -0.86147,0.104838 8.681728,8.681728 0 0 0 -0.84765,0.19003 8.681728,8.681728 0 0 0 -0.53321,0.177351 z M 86.968033,-29.693867 V -9.9861289 H -1.2284507 v 7.492902 h 88.1964837 5.6191 v -7.492902 -19.7077381 z"
       inkscape:connector-curvature="0" />
  </g>
</svg>
