<?xml version="1.0" encoding="UTF-8" standalone="no"?>
<!-- Created with Inkscape (http://www.inkscape.org/) -->

<svg
   xmlns:dc="http://purl.org/dc/elements/1.1/"
   xmlns:cc="http://creativecommons.org/ns#"
   xmlns:rdf="http://www.w3.org/1999/02/22-rdf-syntax-ns#"
   xmlns:svg="http://www.w3.org/2000/svg"
   xmlns="http://www.w3.org/2000/svg"
   xmlns:sodipodi="http://sodipodi.sourceforge.net/DTD/sodipodi-0.dtd"
   xmlns:inkscape="http://www.inkscape.org/namespaces/inkscape"
   width="512"
   height="512"
   viewBox="0 0 135.46667 135.46666"
   version="1.1"
   id="svg10550"
   inkscape:version="0.92.2 (5c3e80d, 2017-08-06)"
   sodipodi:docname="police_car.svg">
  <defs
     id="defs10544" />
  <sodipodi:namedview
     id="base"
     pagecolor="#ffffff"
     bordercolor="#666666"
     borderopacity="1.0"
     inkscape:pageopacity="0.0"
     inkscape:pageshadow="2"
     inkscape:zoom="0.98994949"
     inkscape:cx="156.75469"
     inkscape:cy="301.56721"
     inkscape:document-units="mm"
     inkscape:current-layer="layer1"
     showgrid="false"
     fit-margin-top="0"
     fit-margin-left="0"
     fit-margin-right="0"
     fit-margin-bottom="0"
     inkscape:window-width="1920"
     inkscape:window-height="1025"
     inkscape:window-x="0"
     inkscape:window-y="27"
     inkscape:window-maximized="1"
     units="px" />
  <metadata
     id="metadata10547">
    <rdf:RDF>
      <cc:Work
         rdf:about="">
        <dc:format>image/svg+xml</dc:format>
        <dc:type
           rdf:resource="http://purl.org/dc/dcmitype/StillImage" />
        <dc:title></dc:title>
      </cc:Work>
    </rdf:RDF>
  </metadata>
  <g
     inkscape:label="Camada 1"
     inkscape:groupmode="layer"
     id="layer1"
     transform="translate(-15.676845,39.326374)">
    <path
       id="path1273-7"
       style="fill:#000000;fill-opacity:1;stroke:none;stroke-width:0.80665874;stroke-opacity:0.42358081"
       d="m 121.34439,36.936921 a 13.212457,13.212457 0 0 0 -13.2133,13.212061 13.212457,13.212457 0 0 0 13.2133,13.213303 13.212457,13.212457 0 0 0 13.21207,-13.213303 13.212457,13.212457 0 0 0 -13.21207,-13.212061 z m 0,5.250418 a 7.9624747,7.9624747 0 0 1 7.96165,7.961643 7.9624747,7.9624747 0 0 1 -7.96165,7.96285 7.9624747,7.9624747 0 0 1 -7.96287,-7.96285 7.9624747,7.9624747 0 0 1 7.96287,-7.961643 z M 43.731762,37.199482 a 13.212457,13.212457 0 0 0 -13.2133,13.212077 13.212457,13.212457 0 0 0 13.2133,13.213315 A 13.212457,13.212457 0 0 0 56.94384,50.411559 13.212457,13.212457 0 0 0 43.731762,37.199482 Z m 0,5.250456 a 7.9624747,7.9624747 0 0 1 7.961641,7.961621 7.9624747,7.9624747 0 0 1 -7.961641,7.962867 7.9624747,7.9624747 0 0 1 -7.962882,-7.962867 7.9624747,7.9624747 0 0 1 7.962882,-7.961621 z M 68.5027,-6.8109557 c -0.123715,0.494986 -0.866208,7.67208002 -0.866208,7.67208002 l 8.290794,-0.123714 -0.866193,-7.54833502 z m 67.97853,45.5855697 c 2.03083,4.535734 2.14985,8.666815 2.01245,13.474957 l 10.14998,-0.175042 c 3.62398,-3.351314 2.6781,-8.316363 -0.7,-13.299964 z M 15.994121,39.124603 H 29.46908 l 0.08751,4.549979 -2.712493,4.9e-5 0.174995,9.274969 H 18.969103 C 14.920064,48.93291 15.994126,44.511154 15.994126,39.124603 Z m 41.999861,0.350023 48.299848,-0.175043 v 2.62497 c -4.43233,2.245714 -3.325,6.984424 -3.325,11.374972 l -41.939806,-0.0095 C 60.26782,48.480534 61.779966,44.810275 57.930283,42.243826 Z M 42.068651,1.8497613 C 30.211351,5.3325713 22.971399,13.10961 19.494178,19.523995 v 0.0013 L 19.143981,37.199571 H 33.31876 c 0.827887,-3.770404 4.971292,-4.963749 8.523441,-4.94231 L 41.718486,18.12448 28.944476,17.949914 C 33.718698,9.7605993 43.896861,6.0840383 52.500247,6.4739693 L 46.268546,15.84999 46.134825,32.301658 c 3.136806,0.284147 5.880221,1.830054 6.641296,4.146646 l 16.890956,0.09418 -0.123715,-19.118326 -15.924524,0.175773 c 2.237468,-3.258615 4.655223,-7.7229947 6.513846,-11.0663527 l 23.761186,0.216461 c 5.28439,1.056846 14.626296,7.5000697 16.48138,11.6219717 L 74.443601,18.124499 V 36.32467 H 111.0184 c 3.02143,-7.19423 18.16318,-7.182923 21.15762,0.534579 h 12.44241 V 26.349734 c -5.824,-7.572013 -10.76483,-8.314332 -19.59972,-9.100086 h -13.6501 C 104.17913,11.830205 96.420708,5.2535463 88.968584,2.1999733 Z M 22.222711,24.496001 h 6.929618 v 8.366295 H 22.222711 Z M 129.3844,25.424098 h 6.99149 l 4.70223,3.897898 h -9.40448 z"
       inkscape:connector-curvature="0" />
  </g>
</svg>
