<?xml version="1.0" encoding="UTF-8" standalone="no"?>
<!-- Created with Inkscape (http://www.inkscape.org/) -->

<svg
   xmlns:dc="http://purl.org/dc/elements/1.1/"
   xmlns:cc="http://creativecommons.org/ns#"
   xmlns:rdf="http://www.w3.org/1999/02/22-rdf-syntax-ns#"
   xmlns:svg="http://www.w3.org/2000/svg"
   xmlns="http://www.w3.org/2000/svg"
   xmlns:sodipodi="http://sodipodi.sourceforge.net/DTD/sodipodi-0.dtd"
   xmlns:inkscape="http://www.inkscape.org/namespaces/inkscape"
   width="512"
   height="512"
   viewBox="0 0 135.46666 135.46666"
   version="1.1"
   id="svg4722"
   inkscape:version="0.92.2 (5c3e80d, 2017-08-06)"
   sodipodi:docname="car1.svg">
  <defs
     id="defs4716" />
  <sodipodi:namedview
     id="base"
     pagecolor="#ffffff"
     bordercolor="#666666"
     borderopacity="1.0"
     inkscape:pageopacity="0.0"
     inkscape:pageshadow="2"
     inkscape:zoom="0.7"
     inkscape:cx="117.36305"
     inkscape:cy="-81.851145"
     inkscape:document-units="px"
     inkscape:current-layer="layer1"
     showgrid="false"
     fit-margin-top="0"
     fit-margin-left="0"
     fit-margin-right="0"
     fit-margin-bottom="0"
     inkscape:window-width="1920"
     inkscape:window-height="1025"
     inkscape:window-x="0"
     inkscape:window-y="27"
     inkscape:window-maximized="1"
     units="px" />
  <metadata
     id="metadata4719">
    <rdf:RDF>
      <cc:Work
         rdf:about="">
        <dc:format>image/svg+xml</dc:format>
        <dc:type
           rdf:resource="http://purl.org/dc/dcmitype/StillImage" />
        <dc:title></dc:title>
      </cc:Work>
    </rdf:RDF>
  </metadata>
  <g
     inkscape:label="Camada 1"
     inkscape:groupmode="layer"
     id="layer1"
     transform="translate(-1.1127367,-49.223223)">
    <path
       id="rect1274"
       style="fill:#000000;fill-opacity:1;fill-rule:nonzero;stroke:none;stroke-width:0.17418575;stroke-miterlimit:4;stroke-dasharray:none;stroke-dashoffset:0;stroke-opacity:1"
       d="m 58.547308,90.54942 -7.357161,0.08817 C 39.26153,90.524298 26.496853,95.887607 19.599187,100.6859 l -5.918971,4.8925 -3.8381265,0.34921 c -4.2359002,0.29521 -6.5527968,2.1439 -7.6684492,4.96502 l -0.055803,14.06386 H 13.775052 c 0.15904,-0.30542 0.330214,-0.60432 0.513243,-0.89593 0.230909,-0.35957 0.479652,-0.70738 0.745294,-1.04211 0.265692,-0.33487 0.547947,-0.65622 0.845741,-0.96287 0.298002,-0.3067 0.611167,-0.59825 0.938332,-0.87362 0.326768,-0.27532 0.667139,-0.53413 1.019774,-0.77544 0.352693,-0.2416 0.717263,-0.46541 1.092308,-0.67056 0.375055,-0.2047 0.760069,-0.39052 1.153682,-0.55676 0.393712,-0.16651 0.795497,-0.31323 1.203865,-0.4396 0.408408,-0.12622 0.822853,-0.23202 1.241816,-0.31686 0.419043,-0.0851 0.842047,-0.14913 1.267484,-0.19189 0.425238,-0.0425 0.852363,-0.0637 1.279746,-0.0636 0.05233,0.002 0.104875,0.003 0.157282,0.006 l 0.03883,-8.41549 -3.831107,-3.16029 C 29.339072,99.093368 40.44726,96.53463 51.742498,95.6086 v 14.12187 H 28.784021 v 9.05865 c 0.298033,0.087 0.592788,0.18484 0.883641,0.29345 0.39407,0.15319 0.780237,0.32595 1.157009,0.5177 0.376633,0.19166 0.743407,0.40207 1.099009,0.6304 0.355337,0.22814 0.699023,0.47391 1.029814,0.73637 0.330978,0.26256 0.648632,0.54144 0.951746,0.83569 0.303128,0.29446 0.591359,0.60391 0.863573,0.92718 0.272555,0.32319 0.528736,0.65982 0.767626,1.00862 0.234097,0.34281 0.451155,0.69695 0.650468,1.06107 H 58.763821 V 109.73029 L 58.652242,95.887359 c 6.029833,1.093589 13.51847,1.897606 18.932915,4.691671 5.972839,2.30811 11.007614,5.59771 16.078858,9.42015 L 61.683702,109.8876 v 15.5422 H 91.9748 c 0.014,-0.0296 0.02661,-0.0596 0.04021,-0.0893 0.207543,-0.40759 0.435563,-0.80455 0.682837,-1.18938 0.247185,-0.38534 0.513382,-0.75809 0.797751,-1.11685 0.284617,-0.35855 0.586998,-0.70261 0.905974,-1.03094 0.318932,-0.32822 0.654072,-0.64026 1.004162,-0.93499 0.350044,-0.29473 0.714602,-0.57177 1.092309,-0.8301 0.377558,-0.25847 0.767834,-0.49791 1.169281,-0.71742 0.401864,-0.21947 0.814463,-0.41867 1.236265,-0.59692 0.421426,-0.17835 0.85153,-0.33545 1.288631,-0.47084 0.4374,-0.13511 0.88129,-0.24839 1.32999,-0.33917 0.44852,-0.0911 0.90134,-0.15956 1.35672,-0.20531 0.45527,-0.0455 0.91257,-0.0682 1.37015,-0.0681 0.32382,7e-5 0.64762,0.0109 0.97067,0.0347 0.45621,0.0323 0.9105,0.0875 1.36121,0.16515 0.45101,0.0776 0.89785,0.17779 1.33886,0.30013 0.44134,0.12247 0.87628,0.26695 1.30317,0.43291 0.42638,0.16572 0.84419,0.35267 1.25185,0.56008 0.40799,0.20764 0.80529,0.43552 1.19052,0.68285 0.38496,0.24713 0.75732,0.51341 1.11574,0.79774 0.35852,0.28463 0.70261,0.58698 1.03094,0.90597 0.32856,0.31854 0.64098,0.65331 0.93608,1.00307 0.29475,0.35003 0.57177,0.71459 0.83012,1.09228 0.25837,0.37795 0.49795,0.76857 0.7174,1.17043 0.074,0.14678 0.14554,0.29476 0.2142,0.44406 H 135.686 l -0.75423,-2.81279 c -3.44401,-10.90119 -15.99161,-12.42032 -24.3007,-12.67048 l -10.12194,-1.76063 C 90.920997,98.927516 71.336411,91.419656 58.547397,90.549499 Z m -49.210637,20.3644 0.040214,4.25988 -1.8945078,4.85235 H 5.2341627 v -9.03412 z m 105.679119,6.07408 10.17777,0.15844 c 3.12223,-0.0403 3.27214,2.12302 3.47106,4.41833 l -9.46702,-0.0791 -1.01197,-2.26272 z M 1.6446592,129.29579 H 13.557717 v 8.83616 H 1.6446592 Z m 115.5468708,-0.8771 h 18.85594 v 11.15735 h -18.85594 z m -79.775129,0.33475 h 53.220594 v 10.04162 H 37.416401 Z m 66.832579,-5.83923 a 10.414065,10.414065 0 0 0 -10.414286,10.41316 10.414065,10.414065 0 0 0 10.414286,10.41429 10.414065,10.414065 0 0 0 10.41426,-10.41429 10.414065,10.414065 0 0 0 -10.41426,-10.41316 z m 0,3.84928 a 6.5647778,6.5647778 0 0 1 6.56498,6.56388 6.5647778,6.5647778 0 0 1 -6.56498,6.56499 6.5647778,6.5647778 0 0 1 -6.564991,-6.56499 6.5647778,6.5647778 0 0 1 6.564991,-6.56388 z M 25.076347,122.90576 A 10.414065,10.414065 0 0 0 14.662069,133.31892 10.414065,10.414065 0 0 0 25.076347,143.7332 10.414065,10.414065 0 0 0 35.490616,133.31892 10.414065,10.414065 0 0 0 25.076347,122.90576 Z m 0,3.84929 a 6.5647772,6.5647772 0 0 1 6.564999,6.56387 6.5647772,6.5647772 0 0 1 -6.564999,6.56497 6.5647772,6.5647772 0 0 1 -6.56499,-6.56497 6.5647772,6.5647772 0 0 1 6.56499,-6.56387 z"
       inkscape:connector-curvature="0" />
  </g>
</svg>
