<?xml version="1.0" encoding="UTF-8" standalone="no"?>
<!-- Created with Inkscape (http://www.inkscape.org/) -->

<svg
   xmlns:dc="http://purl.org/dc/elements/1.1/"
   xmlns:cc="http://creativecommons.org/ns#"
   xmlns:rdf="http://www.w3.org/1999/02/22-rdf-syntax-ns#"
   xmlns:svg="http://www.w3.org/2000/svg"
   xmlns="http://www.w3.org/2000/svg"
   xmlns:sodipodi="http://sodipodi.sourceforge.net/DTD/sodipodi-0.dtd"
   xmlns:inkscape="http://www.inkscape.org/namespaces/inkscape"
   width="512"
   height="512"
   viewBox="0 0 135.46667 135.46667"
   version="1.1"
   id="svg4137"
   inkscape:version="0.92.2 (5c3e80d, 2017-08-06)"
   sodipodi:docname="truck1.svg">
  <defs
     id="defs4131" />
  <sodipodi:namedview
     id="base"
     pagecolor="#ffffff"
     bordercolor="#666666"
     borderopacity="1.0"
     inkscape:pageopacity="0.0"
     inkscape:pageshadow="2"
     inkscape:zoom="0.98994949"
     inkscape:cx="115.21361"
     inkscape:cy="59.04969"
     inkscape:document-units="mm"
     inkscape:current-layer="layer1"
     showgrid="false"
     units="px"
     fit-margin-top="0"
     fit-margin-left="0"
     fit-margin-right="0"
     fit-margin-bottom="0"
     inkscape:window-width="1920"
     inkscape:window-height="1025"
     inkscape:window-x="0"
     inkscape:window-y="27"
     inkscape:window-maximized="1" />
  <metadata
     id="metadata4134">
    <rdf:RDF>
      <cc:Work
         rdf:about="">
        <dc:format>image/svg+xml</dc:format>
        <dc:type
           rdf:resource="http://purl.org/dc/dcmitype/StillImage" />
        <dc:title></dc:title>
      </cc:Work>
    </rdf:RDF>
  </metadata>
  <g
     inkscape:label="Camada 1"
     inkscape:groupmode="layer"
     id="layer1"
     transform="translate(-1.5359343,36.380936)">
    <path
       id="path1112"
       style="fill:#000000;fill-opacity:1;stroke:none;stroke-width:0.90494788px;stroke-linecap:butt;stroke-linejoin:miter;stroke-opacity:1"
       d="m 98.95596,4.6326813 -0.706785,0.706772 0.353343,30.7450327 c 10.879702,-2.395764 18.357542,1.404265 24.030602,7.303398 h 13.78225 V 23.009 L 125.57803,4.6326813 Z m 21.25412,6.4034307 7.25277,12.561881 v 1.295778 9.305935 h -4.9475 v -8.010178 l -0.97538,-0.908239 -9.03736,-5.217214 h -6.24325 V 11.229302 Z M 14.024306,-0.31469167 1.7734548,29.841318 9.5480409,42.681213 H 80.815225 L 96.71784,3.2192053 l 6.12543,-0.117805 0.11781,-4.594085 H 87.765248 l -4.358507,8.599176 -63.021372,-0.23559 V -0.07911467 Z M 90.38123,28.459493 h 6.985645 L 92.108167,42.119878 H 85.122521 Z M 10.740169,45.202215 h 9.995411 v 5.580767 h -9.995411 z m 28.903406,0.166584 -0.03592,3.052473 3.114536,1.759614 1.812898,6.765711 1.787433,-6.670832 3.207386,-1.844356 0.02513,-3.06261 z m 52.642693,-0.08326 H 68.6303 l 0.165891,5.581213 7.829997,1.915415 5.413936,5.913389 H 95.53377 v -10.0787 c 6.43955,-8.799057 20.31601,-6.28935 24.07301,0.735037 v 9.343663 h 17.1583 V 45.451655 h -15.66465 c -4.70948,-7.750127 -20.63018,-8.994532 -28.814349,-0.166258 z m 14.527692,1.713588 a 8.599181,8.599181 0 0 0 -8.599215,8.599176 8.599181,8.599181 0 0 0 8.599215,8.599176 8.599181,8.599181 0 0 0 8.59918,-8.599176 8.599181,8.599181 0 0 0 -8.59918,-8.599176 z m 0,4.829708 a 3.7695036,3.7695036 0 0 1 3.76946,3.769468 3.7695036,3.7695036 0 0 1 -3.76946,3.769521 3.7695036,3.7695036 0 0 1 -3.76953,-3.769521 3.7695036,3.7695036 0 0 1 3.76953,-3.769468 z M 58.66941,46.332761 a 8.599181,8.599181 0 0 0 -8.599225,8.59919 8.599181,8.599181 0 0 0 8.599225,8.599176 8.599181,8.599181 0 0 0 8.599176,-8.599176 8.599181,8.599181 0 0 0 -8.599176,-8.59919 z m 0,4.829695 a 3.7695036,3.7695036 0 0 1 3.769494,3.769495 3.7695036,3.7695036 0 0 1 -3.769494,3.769495 3.7695036,3.7695036 0 0 1 -3.769529,-3.769495 3.7695036,3.7695036 0 0 1 3.769529,-3.769495 z m -28.97808,-4.9475 a 8.599181,8.599181 0 0 0 -8.599176,8.599176 8.599181,8.599181 0 0 0 8.599176,8.599177 8.599181,8.599181 0 0 0 8.599177,-8.599177 8.599181,8.599181 0 0 0 -8.599177,-8.599176 z m 0,4.829682 a 3.7695036,3.7695036 0 0 1 3.769495,3.769494 3.7695036,3.7695036 0 0 1 -3.769495,3.769495 3.7695036,3.7695036 0 0 1 -3.769526,-3.769495 3.7695036,3.7695036 0 0 1 3.769526,-3.769494 z"
       inkscape:connector-curvature="0" />
  </g>
</svg>
