<?xml version="1.0" encoding="UTF-8" standalone="no"?>
<!-- Created with Inkscape (http://www.inkscape.org/) -->

<svg
   xmlns:dc="http://purl.org/dc/elements/1.1/"
   xmlns:cc="http://creativecommons.org/ns#"
   xmlns:rdf="http://www.w3.org/1999/02/22-rdf-syntax-ns#"
   xmlns:svg="http://www.w3.org/2000/svg"
   xmlns="http://www.w3.org/2000/svg"
   xmlns:sodipodi="http://sodipodi.sourceforge.net/DTD/sodipodi-0.dtd"
   xmlns:inkscape="http://www.inkscape.org/namespaces/inkscape"
   width="512"
   height="512"
   viewBox="0 0 135.46666 135.46667"
   version="1.1"
   id="svg18193"
   inkscape:version="0.92.2 (5c3e80d, 2017-08-06)"
   sodipodi:docname="sport_car.svg">
  <defs
     id="defs18187" />
  <sodipodi:namedview
     id="base"
     pagecolor="#ffffff"
     bordercolor="#666666"
     borderopacity="1.0"
     inkscape:pageopacity="0.0"
     inkscape:pageshadow="2"
     inkscape:zoom="0.98994949"
     inkscape:cx="29.574014"
     inkscape:cy="106.37307"
     inkscape:document-units="mm"
     inkscape:current-layer="layer1"
     showgrid="false"
     fit-margin-top="0"
     fit-margin-left="0"
     fit-margin-right="0"
     fit-margin-bottom="0"
     inkscape:window-width="1920"
     inkscape:window-height="1025"
     inkscape:window-x="0"
     inkscape:window-y="27"
     inkscape:window-maximized="1"
     units="px" />
  <metadata
     id="metadata18190">
    <rdf:RDF>
      <cc:Work
         rdf:about="">
        <dc:format>image/svg+xml</dc:format>
        <dc:type
           rdf:resource="http://purl.org/dc/dcmitype/StillImage" />
        <dc:title></dc:title>
      </cc:Work>
    </rdf:RDF>
  </metadata>
  <g
     inkscape:label="Camada 1"
     inkscape:groupmode="layer"
     id="layer1"
     transform="translate(-30.06666,38.940332)">
    <path
       id="path1451"
       style="fill:#000000;fill-opacity:1;stroke:none;stroke-width:0.68466574px;stroke-linecap:butt;stroke-linejoin:miter;stroke-opacity:1"
       d="m 66.908116,9.1349603 c -0.508221,0.452283 -0.606396,6.1120487 -0.0569,6.1795157 l 4.535414,0.0567 c 0.846078,-1.938057 0.841673,-4.666572 0.05649,-6.4629947 -1.512796,-0.667813 -3.313539,-0.56498 -4.535414,0.226742 z m 27.155867,-6.88828 0.04679,2.708471 C 103.54414,9.6325583 108.31702,13.977059 110.27795,18.1207 L 76.152192,17.491859 c 4.579422,5.299671 6.230838,14.342318 6.374622,19.961091 l 37.802406,-0.0042 c 2.43357,-8.981061 22.65582,-8.848657 26.34556,0 l 14.62677,0.06007 -0.79367,-6.349582 c 0,0 -3.51495,-12.699208 -15.98734,-12.81258 -12.47247,-0.113392 -27.21261,-0.396872 -27.21261,-0.396872 0,0 -13.91718,-15.7039097 -23.244092,-15.7039097 z M 153.2026,30.711047 c 0,0 -6.09356,0.160393 -6.41426,0 -0.32067,-0.160394 -6.25435,-4.490078 -6.25435,-4.490078 7.76925,-0.382582 12.59192,2.091516 12.66861,4.490078 z M 71.151028,17.420914 c 0,0 -7.021126,-0.300805 -25.049218,-0.207393 -15.462709,0.0801 -15.581392,20.236077 -15.581392,20.236077 h 12.083033 c 6.386024,-12.396716 22.697278,-10.786147 26.875886,0 h 9.951027 C 79.340156,35.515566 78.428909,21.969521 71.151028,17.420852 Z m -25.585112,6.074407 -0.120557,3.046855 -4.24873,4.328715 -5.291684,-0.160603 c 0.359672,-6.67511 3.628423,-6.849267 9.660845,-7.215073 z M 30.645319,39.971773 H 42.370217 V 48.81746 H 30.645319 Z m 115.876121,0.02888 h 18.55813 V 51.170034 H 146.52144 Z M 68.006334,40.335749 H 120.38631 V 50.388197 H 68.006334 Z M 133.78331,34.490234 A 10.249575,10.425287 0 0 0 123.53353,44.914621 10.249575,10.425287 0 0 0 133.78331,55.340126 10.249575,10.425287 0 0 0 144.0331,44.914621 10.249575,10.425287 0 0 0 133.78331,34.490234 Z m 0,3.853459 a 6.4610872,6.5718513 0 0 1 6.46131,6.570928 6.4610872,6.5718513 0 0 1 -6.46131,6.572089 6.4610872,6.5718513 0 0 1 -6.46127,-6.572089 6.4610872,6.5718513 0 0 1 6.46127,-6.570928 z M 55.86121,34.481782 A 10.249575,10.425287 0 0 0 45.611421,44.90617 10.249575,10.425287 0 0 0 55.86121,55.331654 10.249575,10.425287 0 0 0 66.110998,44.90617 10.249575,10.425287 0 0 0 55.86121,34.481782 Z m 0,3.853437 a 6.4610866,6.5718513 0 0 1 6.46131,6.570951 6.4610866,6.5718513 0 0 1 -6.46131,6.572068 6.4610866,6.5718513 0 0 1 -6.461289,-6.572068 6.4610866,6.5718513 0 0 1 6.461289,-6.570951 z"
       inkscape:connector-curvature="0" />
  </g>
</svg>
