<?xml version="1.0" encoding="UTF-8" standalone="no"?>
<!-- Created with Inkscape (http://www.inkscape.org/) -->

<svg
   xmlns:dc="http://purl.org/dc/elements/1.1/"
   xmlns:cc="http://creativecommons.org/ns#"
   xmlns:rdf="http://www.w3.org/1999/02/22-rdf-syntax-ns#"
   xmlns:svg="http://www.w3.org/2000/svg"
   xmlns="http://www.w3.org/2000/svg"
   xmlns:sodipodi="http://sodipodi.sourceforge.net/DTD/sodipodi-0.dtd"
   xmlns:inkscape="http://www.inkscape.org/namespaces/inkscape"
   width="512"
   height="512"
   viewBox="0 0 135.46667 135.46667"
   version="1.1"
   id="svg8210"
   inkscape:version="0.92.2 (5c3e80d, 2017-08-06)"
   sodipodi:docname="empilhadeira.svg">
  <defs
     id="defs8204" />
  <sodipodi:namedview
     id="base"
     pagecolor="#ffffff"
     bordercolor="#666666"
     borderopacity="1.0"
     inkscape:pageopacity="0.0"
     inkscape:pageshadow="2"
     inkscape:zoom="0.7"
     inkscape:cx="60.453284"
     inkscape:cy="58.940817"
     inkscape:document-units="mm"
     inkscape:current-layer="layer1"
     showgrid="false"
     fit-margin-top="0"
     fit-margin-left="0"
     fit-margin-right="0"
     fit-margin-bottom="0"
     inkscape:window-width="1920"
     inkscape:window-height="1025"
     inkscape:window-x="0"
     inkscape:window-y="27"
     inkscape:window-maximized="1"
     units="px" />
  <metadata
     id="metadata8207">
    <rdf:RDF>
      <cc:Work
         rdf:about="">
        <dc:format>image/svg+xml</dc:format>
        <dc:type
           rdf:resource="http://purl.org/dc/dcmitype/StillImage" />
        <dc:title></dc:title>
      </cc:Work>
    </rdf:RDF>
  </metadata>
  <g
     inkscape:label="Camada 1"
     inkscape:groupmode="layer"
     id="layer1"
     transform="translate(43.355875,-6.3548358)">
    <path
       id="path3035"
       style="fill:#000000;fill-opacity:1;stroke:none;stroke-width:1.31820035"
       d="M -23.251789,31.106298 -34.46139,79.36494 h -7.573571 v 8.691962 H 9.5817634 V 79.36494 H 4.3318906 c 0.031138,-0.09084 0.06462,-0.184522 0.06462,-0.281627 v -6.861322 c 0,-0.698997 -0.8490633,-1.267305 -1.8933995,-1.267305 H -8.8359092 c 0,0 -1.7732528,-11.331218 -3.9589258,-13.351518 -2.185665,-2.020387 -7.057205,-0.409627 -7.057205,-0.409627 l 5.766247,22.171274 h -12.97423 l 10.176832,-43.86739 h 31.692702 l 5.077731,21.876759 c -0.055,0.02082 -0.103513,0.03599 -0.150566,0.06406 L 7.4743524,64.721486 c -0.456893,0.271818 -0.350757,0.776985 0.2366787,1.126481 l 0.709994,0.422406 c 0.5874351,0.349509 1.4364984,0.412666 1.8933799,0.140792 l 4.84104,-2.893018 9.681796,15.22025 1.01129,4.313829 c -4.484397,2.704698 -9.03598,5.413276 -13.598035,8.115596 H -39.79656 l 2.130115,23.592288 h 3.356474 c -0.0037,-0.15654 -0.02157,-0.316 -0.02157,-0.4736 0,-9.13232 6.805342,-16.526158 15.189859,-16.526158 8.384508,0 15.1898568,7.393838 15.1898568,16.526158 0,0.15762 -0.018086,0.31706 -0.021567,0.4736 H 18.704682 c -0.123606,-0.89725 -0.215156,-1.80467 -0.215156,-2.73941 0,-10.15803 7.563253,-18.394878 16.889792,-18.394878 3.657547,0 7.046178,1.26559 9.811226,3.41788 v -5.87575 -0.71685 -8.807065 -50.433766 H 37.853838 V 81.644037 H 32.926749 L 21.523689,32.500596 v -1.369723 h -0.322746 v -0.02554 l -0.301236,0.02554 h -43.849671 l -0.301228,-0.02554 z m 43.827656,29.186222 2.108555,9.139681 -4.798075,-7.539667 2.68944,-1.600107 z M 47.511665,20.187192 v 75.14269 h 7.336731 V 33.819698 L 90.789878,31.259514 V 29.697792 H 54.848396 v -9.511215 z m -66.642051,80.408098 c -6.942896,0 -12.586597,6.13545 -12.586597,13.69724 0,7.56137 5.644167,13.69723 12.586597,13.69723 6.94292,0 12.5652663,-6.13544 12.5652663,-13.69723 0,-7.56139 -5.6226943,-13.69724 -12.5652663,-13.69724 z m 0,7.15585 c 3.316622,0 6.002967,2.92901 6.002967,6.54139 0,3.61224 -2.686345,6.5414 -6.002967,6.5414 -3.316598,0 -6.024429,-2.92904 -6.024429,-6.5414 0,-3.61225 2.707831,-6.54139 6.024429,-6.54139 z M 35.387049,96.294162 c -7.971551,0 -14.437335,7.037458 -14.437335,15.719588 0,8.68213 6.465784,15.71959 14.437335,15.71959 7.971539,0 14.437307,-7.03746 14.437307,-15.71959 0,-8.68213 -6.465768,-15.719588 -14.437307,-15.719588 z m 0,8.218008 c 3.80806,0 6.906413,3.35381 6.906413,7.50116 0,4.14736 -3.098571,7.51429 -6.906413,7.51429 -3.808072,0 -6.885082,-3.36665 -6.885082,-7.51429 0,-4.14762 3.07701,-7.50116 6.885082,-7.50116 z"
       inkscape:connector-curvature="0" />
  </g>
</svg>
