<?xml version="1.0" encoding="UTF-8" standalone="no"?>
<!-- Created with Inkscape (http://www.inkscape.org/) -->

<svg
   xmlns:dc="http://purl.org/dc/elements/1.1/"
   xmlns:cc="http://creativecommons.org/ns#"
   xmlns:rdf="http://www.w3.org/1999/02/22-rdf-syntax-ns#"
   xmlns:svg="http://www.w3.org/2000/svg"
   xmlns="http://www.w3.org/2000/svg"
   xmlns:sodipodi="http://sodipodi.sourceforge.net/DTD/sodipodi-0.dtd"
   xmlns:inkscape="http://www.inkscape.org/namespaces/inkscape"
   width="512"
   height="512"
   viewBox="0 0 135.46667 135.46666"
   version="1.1"
   id="svg7625"
   inkscape:version="0.92.2 (5c3e80d, 2017-08-06)"
   sodipodi:docname="helicoptero.svg">
  <defs
     id="defs7619" />
  <sodipodi:namedview
     id="base"
     pagecolor="#ffffff"
     bordercolor="#666666"
     borderopacity="1.0"
     inkscape:pageopacity="0.0"
     inkscape:pageshadow="2"
     inkscape:zoom="0.7"
     inkscape:cx="77.64052"
     inkscape:cy="-51.179833"
     inkscape:document-units="mm"
     inkscape:current-layer="layer1"
     showgrid="false"
     fit-margin-top="0"
     fit-margin-left="0"
     fit-margin-right="0"
     fit-margin-bottom="0"
     inkscape:window-width="1920"
     inkscape:window-height="1025"
     inkscape:window-x="0"
     inkscape:window-y="27"
     inkscape:window-maximized="1"
     units="px" />
  <metadata
     id="metadata7622">
    <rdf:RDF>
      <cc:Work
         rdf:about="">
        <dc:format>image/svg+xml</dc:format>
        <dc:type
           rdf:resource="http://purl.org/dc/dcmitype/StillImage" />
        <dc:title></dc:title>
      </cc:Work>
    </rdf:RDF>
  </metadata>
  <g
     inkscape:label="Camada 1"
     inkscape:groupmode="layer"
     id="layer1"
     transform="translate(-4.5380962,44.715439)">
    <path
       id="path1236"
       style="fill:#000000;fill-opacity:1;stroke:none;stroke-width:0.85158259px;stroke-linecap:butt;stroke-linejoin:miter;stroke-opacity:1"
       d="m 122.71408,41.878001 -42.262691,0.11741 -6.808995,6.808997 4.10887,5.048041 41.440926,-0.234792 6.92639,-6.808996 c -0.42425,-2.863698 -0.57133,-3.669407 -3.4045,-4.930646 z m -40.149567,3.991476 h 2.524022 v 3.815393 h -4.871939 z m 8.511244,0 H 108.86131 V 49.68487 H 91.134447 Z m 22.011823,0 h 6.809 l -2.46533,3.815393 h -4.40237 z M 79.381102,-7.8166607 h 13.779963 v 4.399625 H 79.381102 Z m 2.361639,5.436218 c -17.021736,0.08363 -33.594434,1.44127303 -48.267532,4.026702 l 0.83,6.47559 C 49.64548,4.7465243 66.273346,3.0016043 80.294067,3.9707103 l -0.332232,1.992203 C 69.062088,13.644549 50.417476,13.117701 38.124113,14.762957 L 30.487475,14.928488 17.205246,-0.01372567 7.0774532,0.15297733 6.4141719,3.9707103 l 3.1544365,2.49114 0.3310623,3.9844357 c -4.4028064,2.483723 -4.7845421,8.186488 -4.5291508,9.51146 2.0267659,10.376293 5.2244881,11.149674 14.7344171,11.894603 7.098109,-1.747156 7.013654,-2.019604 10.54807,-8.125005 l 28.887725,0.166703 10.79226,9.96109 8.301091,6.308873 39.845517,-0.165529 c 9.6389,-2.396057 17.48502,-7.706576 18.09666,-12.784466 C 130.22703,16.685959 106.29272,9.0759563 96.730733,8.6196003 l -5.811119,-3.486669 0.166702,-1.825517 c 16.173064,-0.402921 30.034104,1.098393 47.648864,4.814435 l 0.49775,-5.811122 c -18.33097,-3.24422097 -38.19889,-4.78591 -57.490189,-4.69117 z M 18.143243,13.526778 c 1.410252,0.0015 2.785537,0.43906 3.937471,1.252619 l -1.384098,1.506194 C 18.884463,15.256503 17.233022,15.305899 15.824661,15.933402 L 14.311426,14.70895 c 1.130433,-0.76811 2.465104,-1.17989 3.831817,-1.182172 z m 5.192447,2.400754 c 1.059357,1.236118 1.642958,2.809621 1.645886,4.43758 -0.003,1.302586 -0.376616,2.577426 -1.078859,3.674513 l -1.327766,-1.062449 c 1.303683,-1.894371 1.146123,-4.250789 0,-6.104606 z m -10.880304,0.648028 1.373543,1.294884 c -0.768185,2.139176 -0.740784,3.817463 0.352188,5.517625 l -1.233836,1.411109 c -1.057299,-1.235713 -1.639594,-2.807774 -1.642387,-4.434066 0.0012,-1.34901 0.401599,-2.667512 1.150492,-3.789552 z m 86.774721,0.23832 c 9.603103,0.09084 16.769033,2.126054 28.712823,9.404619 -0.26884,4.837813 -1.94023,3.94118 -6.14336,6.806639 L 93.078547,32.692905 C 89.499661,27.968793 84.60047,23.692857 83.946275,17.585158 89.99561,17.132871 94.865071,16.772561 99.230107,16.81388 Z m -78.298699,7.92425 1.432234,1.16926 c -1.137731,0.784251 -2.838554,1.293472 -4.220399,1.296055 -1.065423,-0.003 -2.467658,-0.401149 -3.418582,-0.881633 l 0.894561,-1.260847 c 1.982549,0.569458 3.79802,0.723069 5.312186,-0.322835 z"
       inkscape:connector-curvature="0" />
  </g>
</svg>
