<?xml version="1.0" encoding="UTF-8" standalone="no"?>
<!-- Created with Inkscape (http://www.inkscape.org/) -->

<svg
   xmlns:dc="http://purl.org/dc/elements/1.1/"
   xmlns:cc="http://creativecommons.org/ns#"
   xmlns:rdf="http://www.w3.org/1999/02/22-rdf-syntax-ns#"
   xmlns:svg="http://www.w3.org/2000/svg"
   xmlns="http://www.w3.org/2000/svg"
   xmlns:sodipodi="http://sodipodi.sourceforge.net/DTD/sodipodi-0.dtd"
   xmlns:inkscape="http://www.inkscape.org/namespaces/inkscape"
   width="512"
   height="512"
   viewBox="0 0 135.46667 135.46666"
   version="1.1"
   id="svg21120"
   inkscape:version="0.92.2 (5c3e80d, 2017-08-06)"
   sodipodi:docname="jetsky.svg">
  <defs
     id="defs21114" />
  <sodipodi:namedview
     id="base"
     pagecolor="#ffffff"
     bordercolor="#666666"
     borderopacity="1.0"
     inkscape:pageopacity="0.0"
     inkscape:pageshadow="2"
     inkscape:zoom="0.35"
     inkscape:cx="-657.78107"
     inkscape:cy="-181.05227"
     inkscape:document-units="mm"
     inkscape:current-layer="layer1"
     showgrid="false"
     fit-margin-top="0"
     fit-margin-left="0"
     fit-margin-right="0"
     fit-margin-bottom="0"
     inkscape:window-width="1920"
     inkscape:window-height="1025"
     inkscape:window-x="0"
     inkscape:window-y="27"
     inkscape:window-maximized="1"
     units="px" />
  <metadata
     id="metadata21117">
    <rdf:RDF>
      <cc:Work
         rdf:about="">
        <dc:format>image/svg+xml</dc:format>
        <dc:type
           rdf:resource="http://purl.org/dc/dcmitype/StillImage" />
        <dc:title></dc:title>
      </cc:Work>
    </rdf:RDF>
  </metadata>
  <g
     inkscape:label="Camada 1"
     inkscape:groupmode="layer"
     id="layer1"
     transform="translate(-9.2402884,34.53674)">
    <path
       id="path1081"
       style="fill:#000000;fill-opacity:1;stroke:none;stroke-width:0.8567059px;stroke-linecap:butt;stroke-linejoin:miter;stroke-opacity:1"
       d="m 76.719846,8.7510018 13.787684,-7.78194897 2.622186,1.86089997 -3.55265,2.199237 5.921055,1.099689 0.08448,4.6522542 -7.020705,0.169296 -1.691707,-4.2293532 -7.105322,4.2293532 z M 45.845714,18.393895 80.441688,17.801761 C 80.391937,39.828908 54.887785,38.650943 45.084347,36.072506 l -22.66926,-5.751894 c 0,0 8.443117,-13.87979 14.633519,-17.594052 h 5.24437 z M 10.573036,46.138363 143.37421,45.461669 C 139.95129,28.366954 116.29174,12.002926 105.47936,7.7359838 98.400483,11.679986 90.852642,14.472494 83.317634,17.378861 83.342441,52.425486 37.34847,36.36735 20.385067,32.942796 c -3.419498,0.309767 -9.648058,7.069559 -9.812031,13.195567 z m 0.471467,4.716315 131.991387,-0.317808 c -8.91775,8.309911 -14.814,10.125387 -25.88355,14.210584 l -92.876243,0.67668 C 18.558126,61.003448 15.147819,56.637103 11.044503,50.854678 Z"
       inkscape:connector-curvature="0" />
  </g>
</svg>
