<?xml version="1.0" encoding="UTF-8" standalone="no"?>
<!-- Created with Inkscape (http://www.inkscape.org/) -->

<svg
   xmlns:dc="http://purl.org/dc/elements/1.1/"
   xmlns:cc="http://creativecommons.org/ns#"
   xmlns:rdf="http://www.w3.org/1999/02/22-rdf-syntax-ns#"
   xmlns:svg="http://www.w3.org/2000/svg"
   xmlns="http://www.w3.org/2000/svg"
   xmlns:sodipodi="http://sodipodi.sourceforge.net/DTD/sodipodi-0.dtd"
   xmlns:inkscape="http://www.inkscape.org/namespaces/inkscape"
   width="512"
   height="512"
   viewBox="0 0 135.46667 135.46667"
   version="1.1"
   id="svg14645"
   inkscape:version="0.92.2 (5c3e80d, 2017-08-06)"
   sodipodi:docname="bike.svg">
  <defs
     id="defs14639" />
  <sodipodi:namedview
     id="base"
     pagecolor="#ffffff"
     bordercolor="#666666"
     borderopacity="1.0"
     inkscape:pageopacity="0.0"
     inkscape:pageshadow="2"
     inkscape:zoom="0.98994949"
     inkscape:cx="184.56256"
     inkscape:cy="214.80438"
     inkscape:document-units="mm"
     inkscape:current-layer="layer1"
     showgrid="false"
     fit-margin-top="0"
     fit-margin-left="0"
     fit-margin-right="0"
     fit-margin-bottom="0"
     inkscape:window-width="1920"
     inkscape:window-height="1025"
     inkscape:window-x="0"
     inkscape:window-y="27"
     inkscape:window-maximized="1"
     units="px" />
  <metadata
     id="metadata14642">
    <rdf:RDF>
      <cc:Work
         rdf:about="">
        <dc:format>image/svg+xml</dc:format>
        <dc:type
           rdf:resource="http://purl.org/dc/dcmitype/StillImage" />
        <dc:title></dc:title>
      </cc:Work>
    </rdf:RDF>
  </metadata>
  <g
     inkscape:label="Camada 1"
     inkscape:groupmode="layer"
     id="layer1"
     transform="translate(8.5776895,60.764368)">
    <path
       id="path1230"
       style="fill:#000000;fill-opacity:1;stroke:none;stroke-width:0.49002063px;stroke-linecap:butt;stroke-linejoin:miter;stroke-opacity:1"
       d="m 65.657125,-32.330187 0.116267,4.295633 8.707366,0.232274 -0.115808,2.728319 7.778553,0.05806 0.05775,-4.643914 -3.424897,-0.115961 -0.116268,-2.554178 z m -46.845522,14.221982 8.417109,-0.115961 4.876066,2.728288 c 4.829944,-0.04504 9.38262,-0.0077 13.931789,1.509287 l 5.804885,-0.115961 c 2.115747,-2.247731 6.417614,-1.217531 9.868325,-1.160959 l -0.34845,-2.90246 7.778586,0.115961 v 2.786345 C 63.431364,-6.9572919 51.725216,-4.1182509 51.725216,-4.1182509 l -8.707393,-0.464396 C 30.330787,-8.0040519 24.820887,-10.080769 18.811465,-18.108098 Z M 92.359637,-2.2609279 88.296234,-0.17116086 100.09293,20.902945 c -1.01683,1.172541 -1.578174,2.677168 -1.580091,4.235247 0,3.558629 2.858821,6.443457 6.385361,6.443457 3.52653,-3.4e-5 6.38542,-2.884828 6.38542,-6.443457 0,-3.558614 -2.85883,-6.44341 -6.38542,-6.443442 -0.0887,0.0012 -0.17752,0.0046 -0.26587,0.01072 z M 86.786949,-20.8366 l -14.860567,0.464396 0.464412,6.2693 C 70.792691,-4.1934039 53.346113,0.34220814 45.572155,0.29322014 L 38.490207,-1.0999379 C 27.329814,-4.7652289 15.849293,-9.9728789 14.690111,-18.282438 l -18.1112612,-0.115961 v 4.411716 l 6.9658636,0.348297 0.2322747,6.9658651 h 4.9921804 l 2.6702315,0.928792 9.75224,5.34050804 13.815675,8.47515096 3.134656,4.9922269 1.073889,3.94732 -20.512207,3.890439 c -1.185178,-1.776898 -3.16796,-2.843329 -5.290554,-2.845579 -3.5265829,0 -6.3854001,2.884828 -6.3854001,6.443456 0,3.55861 2.8588478,6.44344 6.3854001,6.44344 2.947343,-0.0032 5.509241,-2.042724 6.1996,-4.934168 4.814885,-1.232527 9.881958,-2.121185 14.901205,-3.366842 l 5.369521,-0.522455 0.261242,4.353693 22.145665,-0.174263 c 3.676875,-0.394008 7.068666,-4.612913 8.59125,-8.707349 3.498317,-12.3521439 9.909378,-21.5332329 21.642117,-23.4000999 2.517353,-8.2875001 23.614511,-8.1333651 25.352751,-1.631559 l 3.1959,-0.443088 C 119.60692,-20.509136 94.590259,-16.179359 91.384077,-11.225 Z M 104.66603,4.4728761 A 20.897626,20.897626 0 0 0 83.768404,25.370496 20.897626,20.897626 0 0 0 104.66603,46.268117 20.897626,20.897626 0 0 0 125.56369,25.370496 20.897626,20.897626 0 0 0 104.66603,4.4728761 Z m 0,4.759999 a 16.137611,16.137611 0 0 1 1.61147,0.08119 16.137611,16.137611 0 0 1 1.59402,0.240271 16.137611,16.137611 0 0 1 1.5638,0.399384 16.137611,16.137611 0 0 1 1.5151,0.5526299 16.137611,16.137611 0 0 1 1.45239,0.702384 16.137611,16.137611 0 0 1 1.37574,0.842871 16.137611,16.137611 0 0 1 1.28408,0.976385 16.137611,16.137611 0 0 1 1.17955,1.099443 16.137611,16.137611 0 0 1 1.06459,1.212061 16.137611,16.137611 0 0 1 0.93806,1.311923 16.137611,16.137611 0 0 1 0.80343,1.398978 16.137611,16.137611 0 0 1 0.65825,1.472128 16.137611,16.137611 0 0 1 0.50853,1.531312 16.137611,16.137611 0 0 1 0.35422,1.574283 16.137611,16.137611 0 0 1 0.19401,1.600985 16.137611,16.137611 0 0 1 0.0406,1.141259 16.137611,16.137611 0 0 1 -0.0803,1.611444 16.137611,16.137611 0 0 1 -0.24153,1.595194 16.137611,16.137611 0 0 1 -0.39939,1.562659 16.137611,16.137611 0 0 1 -0.55264,1.515076 16.137611,16.137611 0 0 1 -0.70239,1.452381 16.137611,16.137611 0 0 1 -0.84287,1.37577 16.137611,16.137611 0 0 1 -0.97638,1.284043 16.137611,16.137611 0 0 1 -1.09946,1.179556 16.137611,16.137611 0 0 1 -1.21206,1.064622 16.137611,16.137611 0 0 1 -1.31188,0.939224 16.137611,16.137611 0 0 1 -1.39901,0.802248 16.137611,16.137611 0 0 1 -1.47212,0.658264 16.137611,16.137611 0 0 1 -1.5313,0.509662 16.137611,16.137611 0 0 1 -1.57315,0.352926 16.137611,16.137611 0 0 1 -1.60215,0.193868 16.137611,16.137611 0 0 1 -1.14121,0.04059 16.137611,16.137611 0 0 1 -1.61149,-0.08012 16.137611,16.137611 0 0 1 -1.59515,-0.241477 16.137611,16.137611 0 0 1 -1.562692,-0.399386 16.137611,16.137611 0 0 1 -1.515105,-0.552617 16.137611,16.137611 0 0 1 -1.452381,-0.702398 16.137611,16.137611 0 0 1 -1.375726,-0.842859 16.137611,16.137611 0 0 1 -1.284059,-0.976385 16.137611,16.137611 0 0 1 -1.179555,-1.099455 16.137611,16.137611 0 0 1 -1.064636,-1.212061 16.137611,16.137611 0 0 1 -0.938075,-1.311911 16.137611,16.137611 0 0 1 -0.80338,-1.398977 16.137611,16.137611 0 0 1 -0.658238,-1.472122 16.137611,16.137611 0 0 1 -0.508574,-1.531331 16.137611,16.137611 0 0 1 -0.354226,-1.573119 16.137611,16.137611 0 0 1 -0.194022,-1.602148 16.137611,16.137611 0 0 1 -0.04059,-1.141246 16.137611,16.137611 0 0 1 0.08027,-1.611446 16.137611,16.137611 0 0 1 0.241528,-1.594014 16.137611,16.137611 0 0 1 0.39938,-1.563834 16.137611,16.137611 0 0 1 0.552635,-1.515081 16.137611,16.137611 0 0 1 0.702412,-1.452376 16.137611,16.137611 0 0 1 0.842871,-1.374623 16.137611,16.137611 0 0 1 0.976386,-1.285194 16.137611,16.137611 0 0 1 1.09941,-1.179555 16.137611,16.137611 0 0 1 1.212094,-1.06462 16.137611,16.137611 0 0 1 1.311894,-0.938093 16.137611,16.137611 0 0 1 1.398979,-0.803378 16.137611,16.137611 0 0 1 1.472122,-0.658267 16.137611,16.137611 0 0 1 1.531328,-0.5085119 16.137611,16.137611 0 0 1 1.57313,-0.354088 16.137611,16.137611 0 0 1 1.60215,-0.193762 16.137611,16.137611 0 0 1 1.14123,-0.04075 z M 13.645235,3.7761901 A 20.897626,20.897626 0 0 0 -7.252402,24.673798 20.897626,20.897626 0 0 0 13.645235,45.571431 20.897626,20.897626 0 0 0 34.542859,24.673798 20.897626,20.897626 0 0 0 13.645235,3.7761901 Z m 0,4.759982 a 16.13761,16.13761 0 0 1 1.611446,0.08119 16.13761,16.13761 0 0 1 1.594014,0.240267 16.13761,16.13761 0 0 1 1.563852,0.399386 16.13761,16.13761 0 0 1 1.515062,0.552629 16.13761,16.13761 0 0 1 1.452379,0.7023829 16.13761,16.13761 0 0 1 1.375771,0.842871 16.13761,16.13761 0 0 1 1.284059,0.976389 16.13761,16.13761 0 0 1 1.179556,1.099456 16.13761,16.13761 0 0 1 1.064591,1.212045 16.13761,16.13761 0 0 1 0.93809,1.311922 16.13761,16.13761 0 0 1 0.803395,1.398966 16.13761,16.13761 0 0 1 0.658252,1.472139 16.13761,16.13761 0 0 1 0.508528,1.531329 16.13761,16.13761 0 0 1 0.354241,1.574301 16.13761,16.13761 0 0 1 0.193764,1.600968 16.13761,16.13761 0 0 1 0.04044,1.141246 16.13761,16.13761 0 0 1 -0.08027,1.611429 16.13761,16.13761 0 0 1 -0.241527,1.595209 16.13761,16.13761 0 0 1 -0.399385,1.562655 16.13761,16.13761 0 0 1 -0.552632,1.515076 16.13761,16.13761 0 0 1 -0.702413,1.452382 16.13761,16.13761 0 0 1 -0.842872,1.375769 16.13761,16.13761 0 0 1 -0.976387,1.284042 16.13761,16.13761 0 0 1 -1.099454,1.179559 16.13761,16.13761 0 0 1 -1.212048,1.06462 16.13761,16.13761 0 0 1 -1.311923,0.939224 16.13761,16.13761 0 0 1 -1.398949,0.802247 16.13761,16.13761 0 0 1 -1.472123,0.658267 16.13761,16.13761 0 0 1 -1.531347,0.509676 16.13761,16.13761 0 0 1 -1.573135,0.352925 16.13761,16.13761 0 0 1 -1.602147,0.19387 16.13761,16.13761 0 0 1 -1.141214,0.04059 16.13761,16.13761 0 0 1 -1.611462,-0.08012 16.13761,16.13761 0 0 1 -1.59519,-0.241458 A 16.13761,16.13761 0 0 1 8.8755249,40.09024 16.13761,16.13761 0 0 1 7.3604636,39.537606 16.13761,16.13761 0 0 1 5.9080389,38.835226 16.13761,16.13761 0 0 1 4.5323135,37.992356 16.13761,16.13761 0 0 1 3.2482547,37.015949 16.13761,16.13761 0 0 1 2.0686985,35.91651 16.13761,16.13761 0 0 1 1.0040622,34.704465 16.13761,16.13761 0 0 1 0.06600214,33.392571 16.13761,16.13761 0 0 1 -0.73737706,31.99356 16.13761,16.13761 0 0 1 -1.3956748,30.52147 a 16.13761,16.13761 0 0 1 -0.5084979,-1.531344 16.13761,16.13761 0 0 1 -0.354256,-1.573138 16.13761,16.13761 0 0 1 -0.1937637,-1.602148 16.13761,16.13761 0 0 1 -0.040594,-1.141246 16.13761,16.13761 0 0 1 0.080269,-1.611445 16.13761,16.13761 0 0 1 0.241512,-1.594013 16.13761,16.13761 0 0 1 0.3993839,-1.563835 16.13761,16.13761 0 0 1 0.552631,-1.515093 16.13761,16.13761 0 0 1 0.70236914,-1.45238 16.13761,16.13761 0 0 1 0.84287015,-1.374591 16.13761,16.13761 0 0 1 0.97638661,-1.28521 16.13761,16.13761 0 0 1 1.0994405,-1.179554 16.13761,16.13761 0 0 1 1.2120926,-1.06462 16.13761,16.13761 0 0 1 1.3118773,-0.938061 16.13761,16.13761 0 0 1 1.399009,-0.803426 16.13761,16.13761 0 0 1 1.4721243,-0.6582499 16.13761,16.13761 0 0 1 1.5313143,-0.508529 16.13761,16.13761 0 0 1 1.5731196,-0.354072 16.13761,16.13761 0 0 1 1.602163,-0.193764 16.13761,16.13761 0 0 1 1.141262,-0.04075 z"
       inkscape:connector-curvature="0" />
  </g>
</svg>
