<?xml version="1.0" encoding="UTF-8" standalone="no"?>
<!-- Created with Inkscape (http://www.inkscape.org/) -->

<svg
   xmlns:dc="http://purl.org/dc/elements/1.1/"
   xmlns:cc="http://creativecommons.org/ns#"
   xmlns:rdf="http://www.w3.org/1999/02/22-rdf-syntax-ns#"
   xmlns:svg="http://www.w3.org/2000/svg"
   xmlns="http://www.w3.org/2000/svg"
   xmlns:sodipodi="http://sodipodi.sourceforge.net/DTD/sodipodi-0.dtd"
   xmlns:inkscape="http://www.inkscape.org/namespaces/inkscape"
   width="512"
   height="512"
   viewBox="0 0 135.46666 135.46667"
   version="1.1"
   id="svg20535"
   inkscape:version="0.92.2 (5c3e80d, 2017-08-06)"
   sodipodi:docname="bus.svg">
  <defs
     id="defs20529" />
  <sodipodi:namedview
     id="base"
     pagecolor="#ffffff"
     bordercolor="#666666"
     borderopacity="1.0"
     inkscape:pageopacity="0.0"
     inkscape:pageshadow="2"
     inkscape:zoom="0.7"
     inkscape:cx="-5.5458993"
     inkscape:cy="16.777759"
     inkscape:document-units="mm"
     inkscape:current-layer="layer1"
     showgrid="false"
     fit-margin-top="0"
     fit-margin-left="0"
     fit-margin-right="0"
     fit-margin-bottom="0"
     inkscape:window-width="1920"
     inkscape:window-height="1025"
     inkscape:window-x="0"
     inkscape:window-y="27"
     inkscape:window-maximized="1"
     units="px" />
  <metadata
     id="metadata20532">
    <rdf:RDF>
      <cc:Work
         rdf:about="">
        <dc:format>image/svg+xml</dc:format>
        <dc:type
           rdf:resource="http://purl.org/dc/dcmitype/StillImage" />
        <dc:title></dc:title>
      </cc:Work>
    </rdf:RDF>
  </metadata>
  <g
     inkscape:label="Camada 1"
     inkscape:groupmode="layer"
     id="layer1"
     transform="translate(-12.234991,9.6939273)">
    <path
       id="path5046-5-3"
       style="fill:#000000;fill-opacity:1;stroke:none;stroke-width:0.7668888"
       d="m 31.48395,71.175996 c -4.461456,0 -8.078177,3.61673 -8.078177,8.07817 0,4.46148 3.616721,8.07818 8.078177,8.07818 4.461456,0 8.078196,-3.6167 8.078196,-8.07818 0,-4.46144 -3.616721,-8.07817 -8.078196,-8.07817 z m 0,3.39416 c 2.586932,0 4.684014,2.09712 4.684014,4.68401 0,2.58688 -2.097118,4.684 -4.684014,4.684 -2.586894,0 -4.683974,-2.09712 -4.683974,-4.684 0,-2.58687 2.09708,-4.68401 4.683974,-4.68401 z m 25.771548,-3.94495 c -4.461456,0 -8.078177,3.61674 -8.078177,8.07818 0,4.46147 3.616721,8.07819 8.078177,8.07819 4.461438,0 8.078194,-3.61672 8.078194,-8.07819 0,-4.46144 -3.616719,-8.07818 -8.078194,-8.07818 z m 0,3.39416 c 2.586914,0 4.683995,2.09712 4.683995,4.68402 0,2.58687 -2.097099,4.68401 -4.683995,4.68401 -2.586895,0 -4.683976,-2.09714 -4.683976,-4.68401 0,-2.58686 2.097081,-4.68402 4.683976,-4.68402 z m 60.052962,-3.38835 c -4.46147,0 -8.07819,3.61674 -8.07819,8.07818 0,4.46148 3.61672,8.07818 8.07819,8.07818 4.46143,0 8.0782,-3.6167 8.0782,-8.07818 0,-4.46144 -3.61673,-8.07818 -8.0782,-8.07818 z m 0,3.39416 c 2.5869,0 4.68401,2.09713 4.68401,4.68402 0,2.58689 -2.09714,4.684 -4.68401,4.684 -2.5869,0 -4.684,-2.09711 -4.684,-4.684 0,-2.58688 2.0971,-4.68402 4.684,-4.68402 z m 7.02206,-45.278709 -105.033831,0.106814 c -6.859647,15.960731 -5.872344,26.720996 -6.010594,43.865925 l 3.7589,7.11016 h 3.413755 c 1.563549,-12.65572 13.750289,-16.8037 22.280536,-5.67608 l 0.420726,5.67608 h 3.913439 l 0.402721,-6.21287 c 2.774788,-8.83775 14.814867,-8.07159 20.018968,-1.15051 l 0.396855,7.36338 H 105.2895 c 1.94408,-15.78504 21.1267,-16.45861 23.41298,-3.22152 l 0.74783,3.22152 h 11.27503 l 2.70372,-3.22152 0.46024,-18.868452 -4.60207,-11.965345 -3.68163,-5.982683 c 2.44403,-0.789557 8.72521,5.587322 9.66431,7.363298 l 1.38064,-1.150513 c -3.33509,-4.080652 -9.38788,-9.852934 -12.42557,-9.204117 z m -24.16081,6.903092 0.14869,16.974193 -79.639971,-0.760096 c 0.350092,-5.319365 1.715469,-16.310008 3.597907,-15.755073 z m 18.86843,0 c 10.1477,0.07139 19.42346,16.931855 18.86845,26.922057 -7.38168,-3.620978 -14.96959,-7.045765 -21.62968,-9.204112 l -9.504,-0.311478 -0.18827,-17.557612 z m 18.06309,32.329477 c 1.71561,0 3.1064,1.39078 3.1064,3.10639 0,1.71562 -1.39079,3.10637 -3.1064,3.10637 -1.71561,0 -3.10639,-1.39075 -3.10639,-3.10637 0,-1.71561 1.39078,-3.10639 3.10639,-3.10639 z"
       inkscape:connector-curvature="0" />
  </g>
</svg>
