<?xml version="1.0" encoding="UTF-8" standalone="no"?>
<!-- Created with Inkscape (http://www.inkscape.org/) -->

<svg
   xmlns:dc="http://purl.org/dc/elements/1.1/"
   xmlns:cc="http://creativecommons.org/ns#"
   xmlns:rdf="http://www.w3.org/1999/02/22-rdf-syntax-ns#"
   xmlns:svg="http://www.w3.org/2000/svg"
   xmlns="http://www.w3.org/2000/svg"
   xmlns:sodipodi="http://sodipodi.sourceforge.net/DTD/sodipodi-0.dtd"
   xmlns:inkscape="http://www.inkscape.org/namespaces/inkscape"
   width="512"
   height="512"
   viewBox="0 0 135.46667 135.46667"
   version="1.1"
   id="svg7038"
   inkscape:version="0.92.2 (5c3e80d, 2017-08-06)"
   sodipodi:docname="trator.svg">
  <defs
     id="defs7032" />
  <sodipodi:namedview
     id="base"
     pagecolor="#ffffff"
     bordercolor="#666666"
     borderopacity="1.0"
     inkscape:pageopacity="0.0"
     inkscape:pageshadow="2"
     inkscape:zoom="0.7"
     inkscape:cx="-7.1630521"
     inkscape:cy="32.661165"
     inkscape:document-units="mm"
     inkscape:current-layer="layer1"
     showgrid="false"
     fit-margin-top="0"
     fit-margin-left="0"
     fit-margin-right="0"
     fit-margin-bottom="0"
     inkscape:window-width="1920"
     inkscape:window-height="1025"
     inkscape:window-x="0"
     inkscape:window-y="27"
     inkscape:window-maximized="1"
     units="px" />
  <metadata
     id="metadata7035">
    <rdf:RDF>
      <cc:Work
         rdf:about="">
        <dc:format>image/svg+xml</dc:format>
        <dc:type
           rdf:resource="http://purl.org/dc/dcmitype/StillImage" />
        <dc:title></dc:title>
      </cc:Work>
    </rdf:RDF>
  </metadata>
  <g
     inkscape:label="Camada 1"
     inkscape:groupmode="layer"
     id="layer1"
     transform="translate(46.090028,-9.2222196)">
    <g
       id="g1073"
       transform="matrix(1.1327303,0,0,1.1327303,141.48624,23.304081)"
       style="fill:#000000;stroke-width:1.18485665">
      <path
         id="path1048-3"
         style="fill:#000000;fill-opacity:1;stroke:none;stroke-width:0.75453532"
         d="m -60.309524,74.327906 a 4.1666658,4.1666658 0 0 1 -4.16666,4.16666 4.1666658,4.1666658 0 0 1 -4.16666,-4.16666 4.1666658,4.1666658 0 0 1 4.16666,-4.16666 4.1666658,4.1666658 0 0 1 4.16666,4.16666 z m -76.108696,-6.57247 a 4.1666656,4.1666656 0 0 1 -4.16667,4.16667 4.1666656,4.1666656 0 0 1 -4.16667,-4.16667 4.1666656,4.1666656 0 0 1 4.16667,-4.16666 4.1666656,4.1666656 0 0 1 4.16667,4.16666 z m 71.766166,-11.75386 a 17.412932,17.412932 0 0 0 -17.41293,17.41293 17.412932,17.412932 0 0 0 17.41293,17.41293 17.412932,17.412932 0 0 0 17.41293,-17.41293 17.412932,17.412932 0 0 0 -17.41293,-17.41293 z m 0.0621,7.3383 a 10.509948,10.509948 0 0 1 10.50992,10.50993 10.509948,10.509948 0 0 1 -10.50992,10.50995 10.509948,10.509948 0 0 1 -10.50995,-10.50995 10.509948,10.509948 0 0 1 10.50995,-10.50993 z m -75.232496,-20.82588 a 24.537654,24.537654 0 0 0 -24.53855,24.53731 24.537654,24.537654 0 0 0 24.53855,24.53855 24.537654,24.537654 0 0 0 24.53731,-24.53855 24.537654,24.537654 0 0 0 -24.53731,-24.53731 z m -0.61566,11.60945 a 13.895876,13.895876 0 0 1 13.89552,13.89552 13.895876,13.895876 0 0 1 -13.89552,13.89677 13.895876,13.895876 0 0 1 -13.89677,-13.89677 13.895876,13.895876 0 0 1 13.89677,-13.89552 z m 61.358186,-25.8582 -7.4005,0.0623 0.0621,28.04727 12.4378,0.12443 1.11941,-2.86068 16.66666,-0.24877 3.48258,2.11443 0.12444,-10.32337 c -2.48557,-9.72666 -18.71435,-16.56391 -26.49253,-16.91543 z m 18.65673,15.04975 a 2.2388055,2.2388055 0 0 1 2.23879,2.23882 2.2388055,2.2388055 0 0 1 -2.23879,2.23879 2.2388055,2.2388055 0 0 1 -2.23882,-2.23879 2.2388055,2.2388055 0 0 1 2.23882,-2.23882 z M -95.870964,4.5090261 V 28.140886 h -0.74627 v 25.62187 h 7.71144 v -25.62187 h -2.73631 V 4.5090261 Z m -21.766156,-1.36816 -33.08458,0.49753 V 37.220486 c -5.04346,0.0883 -7.72172,1.91911 -11.19402,5.97012 l 3.73134,4.47764 c 4.61191,-5.38192 10.05262,-7.74683 16.10696,-7.52489 l 8.95523,0.18653 c 4.89264,0.73782 19.79339,13.73674 20.77114,27.42536 l 1.92786,1.55474 22.885556,-0.49753 7.46269,-8.20896 -12.68657,-1.24377 c -2.35216,-2.99207 -5.39609,-6.26853 -7.711436,-8.70647 l 0.24876,-36.56715 c -0.41896,-5.0911399 -7.83985,-11.0438899 -17.41293,-10.9452799 z m -26.14303,8.6790999 h 10.90547 l -0.35199,17.41419 c -2.48274,-1.74626 -7.20476,-0.8768 -10.37811,-0.70399 z m 18.82089,0.44032 12.40049,0.0871 c 3.29045,0.34349 6.25813,4.3041 6.68408,7.38806 v 27.352 h -3.60572 c -1.42604,-5.62753 -10.48219,-14.16003 -15.65547,-15.47885 z"
         inkscape:connector-curvature="0" />
    </g>
  </g>
</svg>
