<?xml version="1.0" encoding="UTF-8" standalone="no"?>
<!-- Created with Inkscape (http://www.inkscape.org/) -->

<svg
   xmlns:dc="http://purl.org/dc/elements/1.1/"
   xmlns:cc="http://creativecommons.org/ns#"
   xmlns:rdf="http://www.w3.org/1999/02/22-rdf-syntax-ns#"
   xmlns:svg="http://www.w3.org/2000/svg"
   xmlns="http://www.w3.org/2000/svg"
   xmlns:sodipodi="http://sodipodi.sourceforge.net/DTD/sodipodi-0.dtd"
   xmlns:inkscape="http://www.inkscape.org/namespaces/inkscape"
   width="512"
   height="512"
   viewBox="0 0 135.46666 135.46667"
   version="1.1"
   id="svg19365"
   inkscape:version="0.92.2 (5c3e80d, 2017-08-06)"
   sodipodi:docname="trailer.svg">
  <defs
     id="defs19359" />
  <sodipodi:namedview
     id="base"
     pagecolor="#ffffff"
     bordercolor="#666666"
     borderopacity="1.0"
     inkscape:pageopacity="0.0"
     inkscape:pageshadow="2"
     inkscape:zoom="0.7"
     inkscape:cx="-5.4361163"
     inkscape:cy="-0.1015359"
     inkscape:document-units="mm"
     inkscape:current-layer="layer1"
     showgrid="false"
     fit-margin-top="0"
     fit-margin-left="0"
     fit-margin-right="0"
     fit-margin-bottom="0"
     inkscape:window-width="1920"
     inkscape:window-height="1025"
     inkscape:window-x="0"
     inkscape:window-y="27"
     inkscape:window-maximized="1"
     units="px" />
  <metadata
     id="metadata19362">
    <rdf:RDF>
      <cc:Work
         rdf:about="">
        <dc:format>image/svg+xml</dc:format>
        <dc:type
           rdf:resource="http://purl.org/dc/dcmitype/StillImage" />
        <dc:title></dc:title>
      </cc:Work>
    </rdf:RDF>
  </metadata>
  <g
     inkscape:label="Camada 1"
     inkscape:groupmode="layer"
     id="layer1"
     transform="translate(-27.833184,28.959042)">
    <path
       id="rect5349"
       style="fill:#000000;fill-opacity:1;stroke:none;stroke-width:0.85424203"
       d="m 150.50999,57.949228 v 4.004755 h -9.44897 v 4.31411 h 9.44897 V 76.64235 h 4.82686 V 66.268093 h 6.16326 v -4.31411 h -6.16326 V 57.949228 Z M 90.444802,55.064431 A 12.201577,12.201577 0 0 0 78.243241,67.266008 12.201577,12.201577 0 0 0 90.444802,79.46758 12.201577,12.201577 0 0 0 102.64638,67.266008 12.201577,12.201577 0 0 0 90.444802,55.064431 Z m -0.217883,4.793479 a 7.1902149,7.1902149 0 0 1 7.190223,7.190218 7.1902149,7.1902149 0 0 1 -7.190223,7.190212 7.1902149,7.1902149 0 0 1 -7.190218,-7.190212 7.1902149,7.1902149 0 0 1 7.190218,-7.190218 z M 29.633025,5.5319566 V 67.610275 h 43.604673 c -0.01414,-0.101 -0.02525,-0.202287 -0.03636,-0.303609 -0.02828,-0.400265 -0.04242,-0.801426 -0.04222,-1.20271 -2.22e-4,-0.566604 0.02788,-1.132843 0.08422,-1.6966 0.05656,-0.563618 0.141591,-1.124041 0.254197,-1.679171 0.112909,-0.55526 0.253469,-1.10453 0.421237,-1.645765 0.167445,-0.541496 0.361834,-1.074294 0.582481,-1.596358 0.220344,-0.521828 0.466603,-1.032322 0.737907,-1.529564 0.271992,-0.497251 0.568686,-0.980599 0.888972,-1.448232 0.319579,-0.467589 0.662325,-0.918942 1.026967,-1.352316 0.365388,-0.433539 0.752268,-0.848535 1.159144,-1.243411 0.406169,-0.394797 0.83181,-0.769057 1.275367,-1.121375 0.443698,-0.352058 0.904745,-0.681738 1.381387,-0.987739 0.477066,-0.30621 0.969118,-0.588381 1.474361,-0.845407 0.504737,-0.257126 1.022016,-0.48884 1.549881,-0.694318 0.528167,-0.205438 1.066312,-0.384315 1.612358,-0.536006 0.545922,-0.151488 1.099053,-0.275605 1.657378,-0.371853 0.558384,-0.09635 1.12123,-0.164818 1.686444,-0.204812 0.400271,-0.02828 0.801431,-0.04242 1.202712,-0.04222 0.566604,2.62e-4 1.132843,0.02889 1.696604,0.08584 0.563595,0.05616 1.124002,0.140581 1.679175,0.252722 0.555739,0.112707 1.105514,0.253469 1.647193,0.421257 0.541034,0.167445 1.073345,0.361874 1.59493,0.582502 0.52182,0.220303 1.032313,0.466582 1.529556,0.737907 0.497268,0.271971 0.980616,0.568661 1.448205,0.888947 0.467616,0.319581 0.918966,0.662329 1.352366,1.026993 0.43352,0.365388 0.84851,0.752245 1.24339,1.159144 0.39482,0.40615 0.76907,0.831811 1.12137,1.275345 0.35212,0.444161 0.68176,0.9057 0.98774,1.38284 0.30617,0.476583 0.58833,0.968149 0.84541,1.472913 0.25716,0.505218 0.48889,1.022963 0.69432,1.55133 0.20539,0.527705 0.38429,1.065344 0.53598,1.610906 0.15149,0.545918 0.27563,1.099072 0.37188,1.657379 0.0963,0.558386 0.16481,1.121229 0.20482,1.68644 0.0283,0.400274 0.0424,0.801453 0.042,1.202736 -0.002,0.502936 -0.0273,1.005533 -0.0739,1.506293 h 24.82438 L 149.3304,43.589306 V 31.823484 L 135.24048,-1.3547224 35.975135,-1.9008664 c 0,0 -6.342211,-0.752168 -6.342211,7.432884 z m 10.461409,6.8124504 h 4.314112 20.02803 4.212433 V 63.290323 H 64.334897 V 16.144309 H 44.408546 v 47.146014 h -4.314112 z m 50.534841,3.287146 H 122.46958 V 32.475527 H 90.629275 Z"
       inkscape:connector-curvature="0" />
  </g>
</svg>
